<?xml version="1.0" standalone="no"?>
<!DOCTYPE svg PUBLIC "-//W3C//DTD SVG 20010904//EN"
 "http://www.w3.org/TR/2001/REC-SVG-20010904/DTD/svg10.dtd">
<svg version="1.0" xmlns="http://www.w3.org/2000/svg"
 width="816.000000pt" height="816.000000pt" viewBox="0 0 816.000000 816.000000"
 preserveAspectRatio="xMidYMid meet">
<metadata>
Created by potrace 1.14, written by Peter Selinger 2001-2017
</metadata>
<g transform="translate(0.000000,816.000000) scale(0.100000,-0.100000)"
fill="#000000" stroke="none">
<path d="M3908 8154 c-3 -3 -53 -10 -137 -19 -24 -3 -48 -8 -53 -11 -5 -3 -24
-8 -41 -11 -57 -8 -264 -81 -354 -124 -287 -138 -533 -351 -713 -619 -54 -80
-154 -271 -171 -328 -6 -23 -17 -42 -23 -43 -14 -1 -62 -5 -141 -13 -52 -5
-92 -11 -190 -31 -38 -8 -180 -53 -245 -78 -103 -39 -303 -143 -347 -182 -22
-19 -38 -30 -67 -49 -68 -43 -250 -217 -309 -296 -23 -30 -44 -57 -47 -60 -10
-9 -80 -110 -80 -115 0 -2 -15 -28 -33 -57 -36 -58 -96 -179 -112 -228 -1 -3
-7 -18 -14 -35 -16 -39 -68 -220 -76 -265 -26 -140 -33 -232 -30 -390 2 -96 5
-185 8 -196 3 -12 8 -39 12 -60 12 -72 13 -79 19 -101 3 -13 8 -33 11 -45 31
-142 132 -370 232 -523 36 -55 68 -102 72 -105 3 -3 19 -23 35 -44 37 -49 197
-211 249 -252 36 -28 37 -31 27 -64 -15 -52 -39 -174 -48 -238 -9 -72 -8 -394
2 -447 4 -22 9 -53 12 -70 32 -201 136 -468 249 -639 25 -38 45 -71 45 -73 0
-2 5 -9 10 -16 26 -30 54 -65 78 -96 39 -49 169 -179 232 -232 115 -95 326
-220 475 -280 46 -19 202 -69 230 -73 17 -3 41 -8 55 -11 121 -27 219 -37 360
-37 116 -1 201 7 315 27 17 3 42 8 57 10 15 2 46 9 70 16 24 7 48 13 53 14 89
19 378 149 428 193 9 8 17 11 17 6 0 -5 4 -4 8 1 28 38 38 37 123 -16 349
-217 827 -304 1222 -223 16 3 38 7 50 9 34 5 135 34 217 61 79 26 323 142 328
156 2 4 10 8 18 8 8 0 14 5 14 10 0 6 6 10 13 10 7 0 23 9 35 20 12 11 25 20
31 20 5 0 11 3 13 8 2 4 21 20 43 37 75 55 227 201 277 266 12 16 31 40 41 52
71 84 176 266 233 403 38 91 86 244 77 244 -3 0 0 7 7 15 7 9 10 18 7 21 -3 3
-2 16 3 29 5 13 11 43 15 66 3 24 9 62 13 84 9 56 9 358 -1 430 -10 69 -43
232 -52 256 -4 11 6 25 32 44 62 46 216 207 280 291 194 258 305 530 352 866
8 60 6 378 -3 443 -8 55 -37 189 -54 245 -9 30 -16 57 -17 60 0 6 -17 51 -47
125 -117 294 -334 568 -603 762 -62 45 -239 153 -251 153 -2 0 -32 13 -66 28
-90 41 -199 78 -303 102 -122 28 -121 28 -195 36 -36 4 -76 8 -90 9 -14 2 -35
3 -46 4 -15 1 -24 10 -28 27 -20 77 -198 401 -227 412 -5 2 -9 10 -9 17 0 7
-3 15 -7 17 -5 2 -33 32 -63 68 -165 197 -395 367 -636 473 -78 34 -233 88
-264 91 -9 1 -21 6 -28 10 -7 4 -16 6 -19 3 -3 -3 -15 -2 -27 2 -12 5 -41 12
-66 15 -25 3 -69 10 -99 15 -49 8 -366 12 -373 5z m318 -338 c128 -15 228 -37
339 -77 69 -24 223 -99 265 -129 15 -11 31 -20 35 -20 4 0 28 -17 53 -37 26
-21 53 -42 61 -48 60 -43 226 -225 282 -310 60 -92 125 -213 117 -220 -2 -1
-40 -10 -85 -19 -144 -29 -343 -106 -498 -193 -27 -15 -51 -31 -53 -35 -2 -5
-8 -8 -13 -8 -6 0 -15 -5 -22 -10 -7 -6 -40 -30 -75 -55 -203 -146 -414 -392
-517 -603 -16 -34 -32 -62 -35 -62 -3 0 -11 15 -19 33 -8 17 -37 70 -65 117
-205 341 -522 607 -891 745 -55 20 -106 38 -115 40 -8 2 -42 11 -75 20 -33 9
-73 18 -89 20 -49 7 -51 18 -11 92 243 442 651 715 1133 759 37 4 68 7 69 8 5
4 154 -2 209 -8z m-1895 -1168 c1 -7 1 -17 0 -21 -5 -29 -14 -182 -14 -232 0
-66 16 -274 22 -292 1 -2 2 -6 3 -10 1 -5 5 -24 10 -43 4 -19 11 -50 14 -69
11 -64 86 -266 135 -366 70 -140 185 -306 284 -411 85 -90 90 -103 35 -104
-14 0 -41 -4 -60 -10 -19 -5 -48 -12 -65 -14 -99 -17 -302 -94 -435 -164 -68
-36 -221 -136 -267 -175 -111 -94 -220 -204 -280 -282 -21 -28 -41 -51 -45
-53 -5 -2 -8 -10 -8 -18 0 -8 -3 -14 -7 -14 -5 0 -21 -23 -38 -50 -77 -128
-85 -139 -97 -134 -22 10 -156 165 -207 239 -420 609 -311 1418 256 1907 176
152 458 279 693 313 25 4 47 9 49 11 9 8 21 4 22 -8z m3784 -54 c74 -24 292
-123 319 -145 6 -5 47 -35 91 -67 120 -88 220 -189 310 -315 25 -34 48 -67 52
-72 17 -23 93 -174 117 -234 64 -158 98 -342 98 -521 0 -95 -2 -127 -18 -240
-14 -102 -94 -349 -125 -386 -5 -6 -6 -14 -2 -17 3 -4 2 -7 -3 -7 -6 0 -16
-16 -24 -35 -8 -19 -17 -35 -22 -35 -4 0 -8 -5 -8 -11 0 -9 -75 -127 -89 -139
-3 -3 -23 -26 -43 -51 -20 -25 -58 -67 -85 -93 -45 -44 -49 -46 -61 -29 -7 10
-43 65 -80 123 -144 222 -326 401 -547 538 -78 48 -214 115 -285 141 -19 7
-44 17 -55 22 -41 18 -201 60 -269 71 -39 6 -76 14 -83 17 -7 4 18 38 65 88
85 91 81 86 138 163 49 68 101 153 147 245 46 91 87 185 81 185 -2 0 2 12 9
28 8 15 24 65 36 111 23 86 26 96 35 152 3 19 8 45 10 58 8 36 19 200 19 266
-1 73 -13 227 -19 236 -2 4 1 9 8 11 19 7 197 -29 283 -58z m-3349 41 c67 -10
236 -66 324 -108 138 -64 274 -161 390 -277 58 -58 113 -116 123 -130 10 -14
29 -38 42 -54 13 -16 29 -41 37 -55 7 -14 15 -28 18 -31 26 -26 131 -257 145
-320 1 -3 7 -25 14 -50 7 -25 15 -54 17 -65 2 -11 7 -31 10 -45 19 -88 26
-372 12 -453 -9 -48 -23 -71 -38 -62 -4 2 -20 7 -36 9 -50 10 -68 14 -114 26
-66 17 -114 33 -124 42 -6 4 -16 8 -23 8 -23 0 -238 110 -277 141 -6 5 -38 29
-71 53 -161 119 -311 300 -409 492 -30 59 -102 242 -105 267 0 4 -3 17 -6 30
-3 12 -7 34 -9 49 -3 15 -7 31 -10 36 -17 29 -26 327 -11 437 9 74 11 78 40
71 12 -3 40 -8 61 -11z m2718 6 c10 -15 20 -141 20 -241 0 -103 -9 -208 -24
-274 -5 -22 -11 -52 -14 -66 -6 -34 -35 -131 -46 -155 -98 -225 -154 -317
-279 -460 -53 -59 -48 -54 -136 -131 -60 -52 -103 -84 -210 -152 -20 -12 -153
-77 -190 -92 -70 -28 -202 -65 -275 -76 -19 -3 -39 -7 -44 -7 -19 -4 -34 130
-31 273 3 145 5 169 26 267 5 29 10 55 10 58 0 3 16 51 35 107 41 118 135 307
171 346 7 7 20 26 30 42 9 17 21 30 25 30 4 0 8 5 8 11 0 18 247 259 266 259
2 0 17 11 32 25 15 14 31 25 35 25 5 0 21 8 35 19 109 76 337 165 477 187 22
3 42 8 44 10 8 7 30 4 35 -5z m-2224 -1865 c30 -4 66 -9 80 -12 14 -2 34 -6
45 -8 109 -21 294 -88 363 -132 23 -15 23 -15 4 -42 -11 -15 -23 -37 -26 -49
-4 -13 -12 -23 -17 -23 -5 0 -9 -5 -9 -11 0 -22 -115 -172 -195 -254 -165
-170 -356 -290 -573 -362 -80 -26 -85 -27 -167 -44 -99 -20 -142 -24 -285 -23
-184 0 -208 3 -415 58 -26 6 -62 18 -80 25 -41 17 -170 74 -174 77 -7 6 84
162 138 234 51 68 186 212 237 251 74 57 135 99 144 99 5 0 10 4 10 8 0 7 178
102 205 109 14 4 150 52 150 54 0 1 30 8 65 14 19 4 52 11 73 16 20 5 70 12
110 15 39 4 73 7 74 8 5 5 189 -2 243 -8z m1980 0 c169 -19 395 -96 545 -186
28 -16 65 -37 83 -47 17 -9 32 -20 32 -24 0 -3 18 -18 41 -33 95 -63 275 -266
355 -401 46 -78 55 -102 41 -113 -25 -19 -105 -52 -207 -86 -101 -33 -128 -41
-195 -52 -16 -3 -41 -8 -55 -11 -14 -3 -92 -7 -175 -8 -151 -3 -216 3 -345 31
-14 3 -29 7 -35 8 -84 18 -177 54 -290 111 -119 61 -117 60 -230 146 -141 109
-311 299 -341 382 -3 9 -10 17 -15 17 -5 0 -9 5 -9 10 0 6 -11 28 -24 49 -23
36 -23 39 -7 53 46 39 299 126 421 144 132 20 287 24 410 10z m-1125 -423 c60
-58 151 -178 205 -268 43 -74 109 -211 114 -240 1 -5 4 -15 8 -20 6 -9 35
-114 44 -160 2 -11 7 -31 9 -45 15 -68 20 -138 19 -280 0 -123 -5 -177 -23
-260 -28 -129 -62 -232 -109 -330 -32 -67 -107 -197 -122 -210 -3 -3 -13 -16
-21 -30 -20 -31 -62 -80 -117 -137 l-43 -45 -32 35 c-65 69 -103 114 -127 150
-14 20 -28 37 -32 37 -5 0 -8 4 -8 10 0 5 -16 34 -35 64 -87 136 -166 359
-192 541 -9 64 -9 314 -1 382 6 39 37 185 53 243 14 50 112 269 125 280 4 3 9
12 13 20 21 48 186 259 233 299 0 1 18 -15 39 -36z m-779 -671 c-25 -41 -40
-399 -22 -518 29 -182 61 -324 85 -379 5 -11 15 -36 21 -55 27 -73 115 -248
163 -320 54 -82 125 -179 143 -195 6 -5 28 -28 47 -51 l36 -40 -72 -36 c-91
-46 -167 -78 -167 -72 0 3 -8 0 -18 -5 -22 -12 -157 -49 -205 -56 -17 -3 -48
-8 -67 -11 -61 -10 -288 -11 -348 -2 -31 4 -72 11 -91 13 -179 27 -411 124
-571 240 -177 127 -334 304 -432 485 -29 54 -89 189 -93 210 -2 8 -8 28 -15
45 -20 51 -44 172 -56 280 -14 130 -3 344 22 428 5 16 8 17 27 4 68 -43 302
-119 452 -146 166 -31 412 -33 585 -5 152 24 372 94 500 160 66 34 85 40 76
26z m1595 -41 c161 -76 361 -133 549 -157 66 -8 336 -8 400 1 180 25 371 77
508 140 39 19 72 33 73 32 2 -5 7 -36 13 -72 4 -23 9 -52 12 -65 7 -36 7 -257
0 -310 -4 -25 -9 -63 -12 -85 -7 -52 -42 -194 -54 -220 -4 -11 -16 -42 -26
-70 -30 -83 -104 -218 -172 -314 -56 -79 -207 -233 -282 -289 -30 -22 -63 -48
-72 -56 -10 -9 -18 -14 -18 -12 0 3 -24 -11 -52 -30 -29 -19 -58 -34 -65 -34
-7 0 -13 -4 -13 -10 0 -5 -4 -10 -10 -10 -5 0 -33 -11 -62 -24 -86 -39 -204
-77 -280 -90 -15 -2 -31 -7 -35 -9 -29 -18 -420 -31 -430 -14 -2 4 -8 5 -12 3
-12 -8 -182 30 -281 63 -107 35 -245 101 -245 117 0 9 63 88 101 128 22 23
112 154 152 221 37 63 122 247 137 295 1 3 11 34 22 70 28 87 60 247 69 340
14 144 7 361 -15 468 -4 23 -7 42 -6 42 1 0 49 -22 106 -49z"/>
<path d="M2183 1024 c-29 -7 -70 -25 -91 -39 -168 -111 -191 -441 -41 -593 98
-99 279 -110 380 -22 l44 39 -25 25 -25 26 -51 -36 c-42 -30 -60 -36 -100 -36
-27 1 -58 3 -69 6 -11 2 -23 5 -27 5 -22 2 -89 78 -108 122 -44 103 -32 265
25 347 62 91 184 117 270 59 22 -15 43 -27 46 -27 4 0 14 12 24 26 15 24 15
27 0 44 -48 53 -164 78 -252 54z"/>
<path d="M5685 1030 c-16 -4 -41 -12 -55 -18 -114 -50 -142 -210 -50 -288 28
-25 47 -35 181 -98 123 -58 144 -92 109 -176 -34 -81 -192 -83 -298 -3 l-32
24 -24 -28 c-13 -15 -22 -32 -20 -38 4 -9 71 -58 84 -61 3 0 19 -7 35 -14 18
-9 66 -14 120 -14 73 -1 97 3 130 21 53 28 80 59 98 113 23 69 5 146 -45 193
-18 17 -153 85 -171 86 -19 1 -104 54 -116 73 -30 49 -15 111 35 140 49 27
195 6 219 -32 10 -17 29 -11 49 17 19 26 19 26 -5 44 -67 52 -172 78 -244 59z"/>
<path d="M822 1021 c-6 -5 -9 -660 -3 -692 2 -11 59 -16 73 -8 9 6 13 46 14
146 1 76 2 141 3 145 0 3 28 7 61 7 58 0 62 -2 81 -32 10 -18 25 -44 32 -59 6
-16 15 -28 19 -28 5 0 8 -4 8 -9 0 -6 21 -46 47 -90 33 -56 53 -81 70 -84 12
-2 23 -1 23 3 0 4 12 5 26 2 l27 -5 -34 61 c-19 33 -58 101 -86 151 -29 50
-53 93 -53 96 0 2 17 12 37 20 21 9 46 23 56 33 25 22 59 90 52 102 -3 5 -1
11 3 14 10 6 9 20 -2 84 -11 58 -66 116 -126 132 -46 13 -313 21 -328 11z
m306 -86 c42 -18 66 -58 65 -110 -1 -52 -14 -77 -55 -106 -28 -20 -44 -23
-132 -24 l-101 0 0 128 -1 128 97 -2 c52 -1 110 -7 127 -14z"/>
<path d="M1432 1020 c-4 -3 -7 -160 -7 -350 0 -380 -3 -364 62 -349 18 4 35 3
38 -1 3 -5 17 -5 32 -1 14 4 48 4 75 1 26 -4 48 -2 48 2 0 5 5 6 11 3 18 -12
141 -8 148 4 6 10 7 31 2 61 -1 3 -74 5 -163 5 l-163 0 0 120 c-1 66 0 125 2
130 2 6 53 9 132 7 141 -3 143 -2 133 56 -4 22 -6 23 -127 21 -67 -1 -126 0
-131 4 -5 3 -9 52 -9 109 l0 103 150 2 c82 1 154 4 160 7 12 4 13 52 1 63 -8
9 -383 11 -394 3z"/>
<path d="M2603 675 c0 -192 4 -352 9 -356 4 -3 24 -3 43 -1 32 4 35 7 35 36 1
17 2 83 3 146 l2 115 62 2 61 2 47 -82 c26 -44 56 -97 67 -116 57 -103 56
-101 109 -100 l49 2 -21 36 c-12 20 -29 50 -39 66 -9 17 -40 68 -68 114 l-51
85 38 16 c73 33 110 82 118 159 11 107 -42 188 -139 212 -29 7 -114 13 -189
14 l-136 1 0 -351z m309 260 c44 -18 63 -48 67 -102 6 -96 -55 -139 -199 -142
l-89 -2 1 131 1 130 92 0 c58 0 105 -5 127 -15z"/>
<path d="M3214 1021 c-11 -12 -2 -481 11 -530 33 -126 107 -181 243 -181 125
1 211 68 238 186 7 33 14 491 8 515 -3 11 -15 16 -39 14 -19 -1 -37 -4 -40 -6
-2 -3 -5 -112 -5 -242 -1 -130 -5 -251 -10 -268 -24 -83 -80 -124 -167 -121
-59 1 -99 28 -127 84 -23 46 -24 56 -25 295 -1 136 -4 250 -7 253 -7 6 -73 8
-80 1z"/>
<path d="M3911 1015 c-6 -8 -8 -630 -2 -681 1 -15 70 -23 79 -10 6 8 9 665 3
697 -2 10 -72 5 -80 -6z"/>
<path d="M4130 1022 c-5 -2 -10 -19 -10 -37 l0 -34 107 -3 107 -3 1 -310 0
-309 32 -7 c17 -3 37 -3 44 2 10 6 12 79 12 317 l0 310 61 0 c168 1 153 -2
151 35 -2 17 -3 34 -4 37 -1 6 -484 7 -501 2z"/>
<path d="M4770 1020 c-5 -3 -8 -160 -7 -350 l2 -345 43 0 c23 0 42 -2 42 -5 0
-6 158 -3 176 4 7 3 16 1 19 -5 4 -5 11 -7 16 -3 6 3 34 6 62 5 l52 0 2 34 c1
21 -3 36 -10 36 -7 1 -79 2 -162 3 l-150 1 -3 128 -3 127 43 1 c24 0 84 1 133
2 l90 2 0 35 0 35 -95 2 c-52 1 -112 2 -132 2 l-38 1 0 110 0 110 128 -1 c212
0 192 -4 190 36 -1 19 -4 36 -7 36 -21 5 -384 3 -391 -1z"/>
<path d="M6116 1021 c-2 -3 -3 -163 -2 -356 1 -288 3 -350 15 -347 7 1 27 3
45 4 l31 1 -1 344 c-1 189 -4 347 -8 350 -9 9 -76 12 -80 4z"/>
<path d="M6331 1012 c-4 -8 -6 -25 -3 -38 5 -26 0 -25 135 -25 l77 0 0 -314
c0 -338 -2 -326 55 -316 l30 6 3 313 2 313 102 -2 c92 -1 102 0 108 17 6 17 6
25 1 52 0 4 -114 7 -252 7 -200 0 -252 -3 -258 -13z"/>
<path d="M6969 955 c-2 -250 1 -628 5 -632 2 -2 28 -4 57 -4 30 1 63 1 74 0
11 0 27 0 35 0 23 1 129 0 183 -1 26 0 51 2 55 6 11 12 10 65 -2 68 -6 3 -80
4 -163 4 l-153 -1 -1 25 c-3 107 -1 221 3 226 3 3 63 6 134 7 l129 2 -1 28
c-1 15 -2 31 -3 37 0 5 -53 9 -126 8 -69 0 -128 2 -132 5 -5 6 -6 60 -4 184
l1 33 151 -1 c82 -1 153 1 156 5 12 12 12 66 0 67 -6 1 -99 2 -204 3 l-193 1
-1 -70z"/>
</g>
</svg>
