<?xml version="1.0" standalone="no"?>
<!DOCTYPE svg PUBLIC "-//W3C//DTD SVG 20010904//EN"
 "http://www.w3.org/TR/2001/REC-SVG-20010904/DTD/svg10.dtd">
<svg version="1.0" xmlns="http://www.w3.org/2000/svg"
 width="700.000000pt" height="700.000000pt" viewBox="0 0 700.000000 700.000000"
 preserveAspectRatio="xMidYMid meet">
<metadata>
Created by potrace 1.14, written by Peter Selinger 2001-2017
</metadata>
<g transform="translate(0.000000,700.000000) scale(0.100000,-0.100000)"
fill="#000000" stroke="none">
<path d="M3005 6569 c-198 -159 -367 -295 -375 -302 -9 -6 -38 -30 -65 -52
-28 -22 -59 -48 -70 -57 -92 -77 -721 -575 -723 -573 -2 2 -4 112 -5 246 l-2
243 -315 -1 c-173 -1 -319 -2 -325 -2 -7 -1 -10 -177 -9 -510 l1 -510 -290
-233 c-160 -128 -298 -238 -306 -244 -14 -11 -15 -203 -16 -1735 0 -948 1
-1730 3 -1737 6 -17 629 -16 634 2 2 6 4 717 4 1580 l-1 1568 200 161 c110 89
279 224 375 302 96 78 267 215 380 306 113 91 309 248 435 350 127 102 361
290 520 418 160 129 297 240 306 247 17 15 -1 29 760 -575 80 -64 163 -129
184 -146 21 -16 55 -43 75 -60 21 -16 52 -42 71 -57 19 -14 243 -192 499 -395
256 -202 481 -380 500 -396 19 -15 109 -86 200 -158 91 -72 174 -137 185 -145
20 -14 20 -27 20 -1512 l0 -1497 320 0 320 0 1 1645 c1 1489 -1 1647 -15 1664
-9 10 -38 35 -66 56 -27 20 -61 47 -75 59 -14 11 -119 96 -235 187 -115 91
-217 170 -225 177 -38 31 -780 618 -839 664 -36 28 -160 126 -276 218 -115 91
-223 177 -240 190 -16 13 -136 107 -265 210 -129 102 -305 241 -390 309 -85
67 -230 181 -322 254 -91 73 -170 132 -175 131 -4 0 -170 -130 -368 -290z"/>
<path d="M3079 5039 c-63 -50 -130 -104 -149 -120 -287 -232 -265 -200 -184
-256 43 -29 77 -53 811 -579 693 -497 853 -616 854 -633 1 -21 1 -1298 0
-1334 l-1 -29 -57 49 c-32 26 -69 58 -83 70 -28 24 -227 188 -250 206 -35 28
-125 102 -130 107 -3 3 -120 100 -260 215 -140 115 -282 232 -316 260 -33 27
-82 68 -109 90 -27 22 -60 50 -74 62 -15 13 -30 26 -36 30 -5 5 -75 62 -155
128 -80 65 -194 160 -255 209 -60 50 -112 93 -115 96 -3 3 -27 24 -55 45 -27
22 -61 50 -75 61 -14 12 -97 81 -185 154 -88 72 -195 161 -237 196 -43 35 -78
60 -79 56 -3 -23 -4 -3009 -1 -3019 3 -9 83 -12 318 -12 l314 0 1 27 c0 15 1
393 1 840 1 446 3 812 5 812 2 0 30 -21 62 -47 360 -295 437 -358 441 -363 3
-3 64 -53 135 -112 72 -58 140 -114 152 -124 12 -11 30 -26 40 -34 111 -90
359 -295 363 -299 3 -4 39 -33 80 -66 41 -32 77 -62 80 -65 3 -3 68 -57 145
-120 77 -63 151 -125 165 -136 14 -12 105 -87 202 -167 l178 -145 215 0 215
-1 0 1333 0 1334 -68 63 c-37 35 -128 109 -202 165 -124 93 -779 568 -860 624
-19 13 -40 29 -47 35 -6 5 -59 44 -118 85 -58 41 -127 90 -153 108 -25 18 -98
70 -161 115 -64 44 -118 84 -121 87 -3 3 -33 24 -66 47 l-62 43 -113 -91z"/>
<path d="M4930 910 c-27 -27 -26 -75 2 -94 51 -36 118 -8 118 49 0 59 -77 88
-120 45z"/>
<path d="M2519 913 c0 -5 -1 -136 -1 -293 -1 -306 3 -334 52 -360 28 -15 80
-19 107 -9 19 7 21 12 13 38 -5 17 -6 31 -3 31 3 0 0 7 -7 15 -7 8 -16 13 -20
10 -17 -11 -21 39 -21 302 l0 273 -60 0 c-32 0 -59 -3 -60 -7z"/>
<path d="M4122 618 c3 -278 5 -305 22 -331 17 -26 57 -42 96 -41 59 3 58 2 53
47 -3 23 -9 44 -14 45 -35 13 -37 29 -37 289 0 142 -1 266 -1 276 -1 14 -11
17 -62 17 l-60 0 3 -302z"/>
<path d="M4667 913 c-2 -5 -3 -56 -1 -116 l2 -107 -34 21 c-66 40 -176 16
-222 -48 -90 -127 -64 -341 48 -395 57 -27 99 -29 152 -6 26 11 48 24 48 29 0
17 15 9 25 -13 9 -21 34 -26 94 -19 6 1 10 134 9 331 l0 330 -58 0 c-32 0 -61
-3 -63 -7z m-29 -297 c28 -14 28 -15 26 -113 -1 -54 -2 -104 -3 -111 -1 -15
-59 -52 -75 -47 -6 2 -23 6 -38 9 -74 16 -89 202 -21 256 30 23 73 26 111 6z"/>
<path d="M2984 868 c-7 -11 -6 -599 1 -606 3 -4 31 -7 61 -7 l54 -1 1 36 c0
19 0 79 -1 133 l-1 97 28 1 c117 4 196 0 202 -9 3 -6 6 -65 6 -131 -1 -74 3
-122 10 -124 5 -2 33 -3 60 -3 l50 1 1 307 c2 348 10 317 -82 310 l-41 -4 2
-106 c1 -59 -1 -113 -3 -119 -3 -10 -36 -13 -117 -13 l-113 0 -1 117 c-1 64
-3 118 -5 121 -8 7 -108 7 -112 0z"/>
<path d="M419 858 c-4 -65 0 -588 4 -596 7 -9 88 -9 105 2 9 5 8 301 -2 391
-4 32 -5 57 -3 55 2 -3 38 -70 79 -150 105 -203 159 -300 166 -301 26 -4 99
-5 110 -1 9 3 12 74 12 308 l0 304 -60 0 -60 0 4 -197 c3 -109 7 -210 10 -225
11 -48 -2 -31 -48 65 -25 50 -58 115 -74 142 -16 28 -48 87 -72 133 l-43 82
-64 0 c-43 0 -63 -4 -64 -12z"/>
<path d="M1190 730 c-83 -15 -151 -78 -174 -163 -16 -60 -17 -74 -5 -140 29
-160 214 -233 348 -138 76 54 111 186 77 288 -35 105 -141 171 -246 153z m121
-157 c14 -36 17 -104 6 -145 -23 -91 -120 -112 -167 -36 -25 41 -27 135 -4
184 19 39 26 45 68 54 37 8 82 -19 97 -57z"/>
<path d="M2185 730 c-73 -16 -142 -76 -166 -147 -7 -21 -13 -67 -12 -103 1
-182 168 -284 341 -210 l51 22 -19 39 -20 38 -37 -16 c-59 -24 -130 -13 -165
26 -15 17 -28 42 -28 54 0 23 0 23 140 22 122 -2 140 0 141 14 5 63 4 81 -8
123 -14 50 -51 101 -87 120 -30 16 -95 25 -131 18z m79 -101 c26 -12 52 -60
43 -82 -3 -9 -29 -12 -93 -12 -83 1 -89 2 -86 20 11 66 76 101 136 74z"/>
<path d="M3760 729 c-85 -16 -144 -66 -173 -146 -57 -159 34 -321 190 -337 51
-5 129 21 164 54 77 73 98 220 46 315 -46 83 -140 131 -227 114z m82 -110 c48
-26 66 -165 28 -227 -33 -53 -92 -62 -136 -21 -56 53 -47 213 13 248 24 14 69
14 95 0z"/>
<path d="M5843 729 c-56 -10 -97 -33 -122 -68 -42 -59 -39 -138 6 -192 15 -17
22 -34 17 -37 -21 -15 -44 -58 -44 -83 0 -15 9 -37 19 -50 19 -24 19 -24 -5
-50 -70 -73 -34 -162 75 -187 42 -9 152 -5 200 8 87 23 149 111 130 183 -15
57 -60 76 -188 81 -119 5 -133 10 -129 45 3 25 5 26 75 27 78 2 127 23 157 69
20 31 28 97 16 130 -9 24 -8 25 25 25 19 0 36 3 36 8 1 4 3 24 4 45 3 41 10
38 -110 39 -27 0 -66 3 -85 7 -19 4 -54 4 -77 0z m86 -105 c43 -54 12 -144
-50 -144 -30 0 -68 29 -70 55 -5 55 -1 73 21 95 29 29 74 26 99 -6z m67 -393
c1 -1 5 -8 8 -17 22 -57 -102 -107 -181 -72 -33 15 -43 26 -43 52 0 43 22 51
122 44 51 -3 94 -7 94 -7z"/>
<path d="M6317 729 c-15 -4 -27 -6 -27 -3 0 2 -14 -4 -32 -14 -47 -27 -71 -64
-71 -114 -1 -65 24 -95 118 -139 89 -41 110 -59 101 -87 -14 -43 -78 -47 -149
-10 l-41 20 -27 -33 c-32 -39 -28 -48 35 -78 123 -57 266 -14 293 89 21 78
-13 122 -133 176 -68 30 -84 41 -84 59 0 11 5 26 12 33 18 18 79 14 115 -7
l32 -20 26 35 c14 19 23 39 20 44 -20 32 -137 63 -188 49z"/>
<path d="M1527 722 c-22 -3 -27 -7 -22 -20 10 -27 136 -395 144 -421 6 -22 12
-24 75 -26 63 -1 68 0 80 24 19 39 149 432 144 436 -9 9 -99 8 -107 -1 -8 -9
-83 -260 -96 -321 -7 -33 -21 -52 -22 -30 -1 15 -80 298 -92 331 -10 25 -46
34 -104 28z"/>
<path d="M4936 722 c-15 -3 -16 -26 -14 -235 l3 -232 57 0 57 0 3 115 c2 63 1
169 -2 235 l-5 120 -41 0 c-23 0 -49 -1 -58 -3z"/>
<path d="M5189 722 c-15 -3 -17 -28 -17 -233 0 -227 0 -229 21 -230 55 -4 63
-4 82 2 18 6 19 16 20 163 0 156 1 158 25 176 41 32 88 36 113 11 23 -23 22
-10 27 -321 l0 -35 61 0 60 0 -3 190 c-3 177 -5 193 -26 226 -28 46 -67 63
-136 57 -41 -3 -63 -12 -95 -37 -31 -25 -41 -29 -42 -17 -1 9 -2 22 -3 28 -1
13 -59 26 -87 20z"/>
</g>
</svg>
