<svg xmlns="http://www.w3.org/2000/svg" xmlns:xlink="http://www.w3.org/1999/xlink" width="42" zoomAndPan="magnify" viewBox="0 0 31.5 38.249999" height="51" preserveAspectRatio="xMidYMid meet" version="1.0"><defs><g/><clipPath id="5e91961de3"><path d="M 2.460938 4.414062 L 28.203125 4.414062 L 28.203125 29.421875 L 2.460938 29.421875 Z M 2.460938 4.414062 " clip-rule="nonzero"/></clipPath><clipPath id="82336a75f0"><path d="M 0.0585938 33 L 3 33 L 3 37 L 0.0585938 37 Z M 0.0585938 33 " clip-rule="nonzero"/></clipPath><clipPath id="8545c418f5"><path d="M 26 33 L 29 33 L 29 37.515625 L 26 37.515625 Z M 26 33 " clip-rule="nonzero"/></clipPath><clipPath id="a5f9f16593"><path d="M 28 33 L 30.953125 33 L 30.953125 37 L 28 37 Z M 28 33 " clip-rule="nonzero"/></clipPath></defs><g clip-path="url(#5e91961de3)"><path fill="#12852d" d="M 21.847656 17.554688 L 22.25 17.964844 L 22.25 29.546875 L 20.371094 29.546875 L 11.46875 22.210938 L 11.46875 29.546875 L 8.699219 29.546875 L 8.699219 16.3125 L 19.480469 25.210938 L 19.480469 19.21875 C 18.164062 18.246094 14.511719 15.625 11.910156 13.773438 L 14.167969 11.96875 C 21.464844 17.167969 21.75 17.457031 21.847656 17.554688 Z M 14.957031 4.414062 L 7.960938 10.03125 L 7.960938 7.863281 L 5.132812 7.863281 L 5.132812 12.308594 L 2.460938 14.453125 L 2.460938 29.546875 L 5.25 29.546875 L 5.25 15.789062 L 14.96875 7.964844 L 25.757812 16.511719 L 25.757812 29.546875 L 28.550781 29.546875 L 28.550781 15.167969 Z M 14.957031 4.414062 " fill-opacity="1" fill-rule="nonzero"/></g><g clip-path="url(#82336a75f0)"><g fill="#12852d" fill-opacity="1"><g transform="translate(0.152692, 36.141338)"><g><path d="M 0.375 0 L 0.953125 0 L 0.953125 -1.222656 C 0.953125 -1.574219 0.90625 -1.957031 0.878906 -2.285156 L 0.898438 -2.285156 L 1.207031 -1.632812 L 2.089844 0 L 2.707031 0 L 2.707031 -3.046875 L 2.128906 -3.046875 L 2.128906 -1.832031 C 2.128906 -1.488281 2.175781 -1.082031 2.207031 -0.765625 L 2.1875 -0.765625 L 1.882812 -1.425781 L 0.996094 -3.046875 L 0.375 -3.046875 Z M 0.375 0 "/></g></g></g></g><g fill="#12852d" fill-opacity="1"><g transform="translate(3.238009, 36.141338)"><g><path d="M 1.289062 0.0585938 C 1.867188 0.0585938 2.398438 -0.386719 2.398438 -1.148438 C 2.398438 -1.917969 1.867188 -2.363281 1.289062 -2.363281 C 0.710938 -2.363281 0.179688 -1.917969 0.179688 -1.148438 C 0.179688 -0.386719 0.710938 0.0585938 1.289062 0.0585938 Z M 1.289062 -0.4375 C 0.976562 -0.4375 0.800781 -0.714844 0.800781 -1.148438 C 0.800781 -1.585938 0.976562 -1.871094 1.289062 -1.871094 C 1.601562 -1.871094 1.78125 -1.585938 1.78125 -1.148438 C 1.78125 -0.714844 1.601562 -0.4375 1.289062 -0.4375 Z M 1.289062 -0.4375 "/></g></g></g><g fill="#12852d" fill-opacity="1"><g transform="translate(5.816657, 36.141338)"><g><path d="M 0.84375 0 L 1.542969 0 L 2.316406 -2.308594 L 1.734375 -2.308594 L 1.394531 -1.15625 C 1.335938 -0.929688 1.269531 -0.691406 1.210938 -0.457031 L 1.191406 -0.457031 C 1.128906 -0.691406 1.0625 -0.929688 1.003906 -1.15625 L 0.667969 -2.308594 L 0.0585938 -2.308594 Z M 0.84375 0 "/></g></g></g><g fill="#12852d" fill-opacity="1"><g transform="translate(8.189343, 36.141338)"><g><path d="M 1.328125 0.0585938 C 1.613281 0.0585938 1.90625 -0.0429688 2.132812 -0.199219 L 1.929688 -0.570312 C 1.761719 -0.464844 1.597656 -0.40625 1.410156 -0.40625 C 1.066406 -0.40625 0.820312 -0.605469 0.769531 -0.984375 L 2.191406 -0.984375 C 2.207031 -1.039062 2.21875 -1.148438 2.21875 -1.261719 C 2.21875 -1.898438 1.890625 -2.363281 1.257812 -2.363281 C 0.703125 -2.363281 0.179688 -1.898438 0.179688 -1.148438 C 0.179688 -0.390625 0.683594 0.0585938 1.328125 0.0585938 Z M 0.761719 -1.382812 C 0.808594 -1.722656 1.023438 -1.894531 1.265625 -1.894531 C 1.5625 -1.894531 1.703125 -1.695312 1.703125 -1.382812 Z M 0.761719 -1.382812 "/></g></g></g><g fill="#12852d" fill-opacity="1"><g transform="translate(10.582624, 36.141338)"><g><path d="M 0.894531 0.0585938 C 1.035156 0.0585938 1.136719 0.03125 1.207031 0.00390625 L 1.132812 -0.445312 C 1.089844 -0.4375 1.074219 -0.4375 1.050781 -0.4375 C 0.992188 -0.4375 0.925781 -0.480469 0.925781 -0.617188 L 0.925781 -3.289062 L 0.324219 -3.289062 L 0.324219 -0.648438 C 0.324219 -0.21875 0.472656 0.0585938 0.894531 0.0585938 Z M 0.894531 0.0585938 "/></g></g></g><g fill="#12852d" fill-opacity="1"><g transform="translate(11.880187, 36.141338)"><g/></g></g><g fill="#12852d" fill-opacity="1"><g transform="translate(12.815254, 36.141338)"><g><path d="M 0.375 0 L 0.984375 0 L 0.984375 -1.316406 L 2.136719 -1.316406 L 2.136719 0 L 2.742188 0 L 2.742188 -3.046875 L 2.136719 -3.046875 L 2.136719 -1.847656 L 0.984375 -1.847656 L 0.984375 -3.046875 L 0.375 -3.046875 Z M 0.375 0 "/></g></g></g><g fill="#12852d" fill-opacity="1"><g transform="translate(15.933522, 36.141338)"><g><path d="M 1.289062 0.0585938 C 1.867188 0.0585938 2.398438 -0.386719 2.398438 -1.148438 C 2.398438 -1.917969 1.867188 -2.363281 1.289062 -2.363281 C 0.710938 -2.363281 0.179688 -1.917969 0.179688 -1.148438 C 0.179688 -0.386719 0.710938 0.0585938 1.289062 0.0585938 Z M 1.289062 -0.4375 C 0.976562 -0.4375 0.800781 -0.714844 0.800781 -1.148438 C 0.800781 -1.585938 0.976562 -1.871094 1.289062 -1.871094 C 1.601562 -1.871094 1.78125 -1.585938 1.78125 -1.148438 C 1.78125 -0.714844 1.601562 -0.4375 1.289062 -0.4375 Z M 1.289062 -0.4375 "/></g></g></g><g fill="#12852d" fill-opacity="1"><g transform="translate(18.51217, 36.141338)"><g><path d="M 0.894531 0.0585938 C 1.035156 0.0585938 1.136719 0.03125 1.207031 0.00390625 L 1.132812 -0.445312 C 1.089844 -0.4375 1.074219 -0.4375 1.050781 -0.4375 C 0.992188 -0.4375 0.925781 -0.480469 0.925781 -0.617188 L 0.925781 -3.289062 L 0.324219 -3.289062 L 0.324219 -0.648438 C 0.324219 -0.21875 0.472656 0.0585938 0.894531 0.0585938 Z M 0.894531 0.0585938 "/></g></g></g><g fill="#12852d" fill-opacity="1"><g transform="translate(19.809734, 36.141338)"><g><path d="M 1.136719 0.0585938 C 1.375 0.0585938 1.605469 -0.0742188 1.773438 -0.238281 L 1.789062 -0.238281 L 1.835938 0 L 2.328125 0 L 2.328125 -3.289062 L 1.722656 -3.289062 L 1.722656 -2.476562 L 1.746094 -2.113281 C 1.582031 -2.265625 1.421875 -2.363281 1.160156 -2.363281 C 0.664062 -2.363281 0.195312 -1.902344 0.195312 -1.148438 C 0.195312 -0.394531 0.5625 0.0585938 1.136719 0.0585938 Z M 1.292969 -0.441406 C 0.988281 -0.441406 0.816406 -0.679688 0.816406 -1.15625 C 0.816406 -1.617188 1.035156 -1.867188 1.292969 -1.867188 C 1.4375 -1.867188 1.582031 -1.820312 1.722656 -1.691406 L 1.722656 -0.679688 C 1.589844 -0.507812 1.453125 -0.441406 1.292969 -0.441406 Z M 1.292969 -0.441406 "/></g></g></g><g fill="#12852d" fill-opacity="1"><g transform="translate(22.462529, 36.141338)"><g><path d="M 0.324219 0 L 0.925781 0 L 0.925781 -2.308594 L 0.324219 -2.308594 Z M 0.628906 -2.675781 C 0.835938 -2.675781 0.988281 -2.816406 0.988281 -3.007812 C 0.988281 -3.203125 0.835938 -3.335938 0.628906 -3.335938 C 0.421875 -3.335938 0.269531 -3.203125 0.269531 -3.007812 C 0.269531 -2.816406 0.421875 -2.675781 0.628906 -2.675781 Z M 0.628906 -2.675781 "/></g></g></g><g fill="#12852d" fill-opacity="1"><g transform="translate(23.71478, 36.141338)"><g><path d="M 0.324219 0 L 0.925781 0 L 0.925781 -1.585938 C 1.101562 -1.753906 1.21875 -1.84375 1.410156 -1.84375 C 1.636719 -1.84375 1.734375 -1.71875 1.734375 -1.363281 L 1.734375 0 L 2.339844 0 L 2.339844 -1.4375 C 2.339844 -2.019531 2.125 -2.363281 1.628906 -2.363281 C 1.3125 -2.363281 1.078125 -2.199219 0.878906 -2 L 0.859375 -2 L 0.820312 -2.308594 L 0.324219 -2.308594 Z M 0.324219 0 "/></g></g></g><g clip-path="url(#8545c418f5)"><g fill="#12852d" fill-opacity="1"><g transform="translate(26.355214, 36.141338)"><g><path d="M 1.136719 1 C 1.90625 1 2.390625 0.648438 2.390625 0.179688 C 2.390625 -0.222656 2.089844 -0.394531 1.53125 -0.394531 L 1.140625 -0.394531 C 0.871094 -0.394531 0.777344 -0.460938 0.777344 -0.585938 C 0.777344 -0.675781 0.8125 -0.730469 0.878906 -0.78125 C 0.976562 -0.75 1.082031 -0.730469 1.175781 -0.730469 C 1.667969 -0.730469 2.0625 -0.992188 2.0625 -1.511719 C 2.0625 -1.65625 2.019531 -1.785156 1.957031 -1.863281 L 2.351562 -1.863281 L 2.351562 -2.308594 L 1.519531 -2.308594 C 1.425781 -2.339844 1.300781 -2.363281 1.175781 -2.363281 C 0.683594 -2.363281 0.242188 -2.070312 0.242188 -1.527344 C 0.242188 -1.261719 0.390625 -1.042969 0.546875 -0.925781 L 0.546875 -0.910156 C 0.410156 -0.8125 0.292969 -0.652344 0.292969 -0.476562 C 0.292969 -0.289062 0.382812 -0.167969 0.503906 -0.0898438 L 0.503906 -0.0703125 C 0.292969 0.0507812 0.171875 0.214844 0.171875 0.40625 C 0.171875 0.816406 0.59375 1 1.136719 1 Z M 1.175781 -1.105469 C 0.972656 -1.105469 0.8125 -1.257812 0.8125 -1.527344 C 0.8125 -1.800781 0.96875 -1.953125 1.175781 -1.953125 C 1.378906 -1.953125 1.53125 -1.800781 1.53125 -1.527344 C 1.53125 -1.257812 1.375 -1.105469 1.175781 -1.105469 Z M 1.226562 0.617188 C 0.890625 0.617188 0.675781 0.507812 0.675781 0.3125 C 0.675781 0.21875 0.726562 0.128906 0.828125 0.046875 C 0.910156 0.0664062 1.007812 0.078125 1.148438 0.078125 L 1.429688 0.078125 C 1.675781 0.078125 1.8125 0.121094 1.8125 0.285156 C 1.8125 0.464844 1.574219 0.617188 1.226562 0.617188 Z M 1.226562 0.617188 "/></g></g></g></g><g clip-path="url(#a5f9f16593)"><g fill="#12852d" fill-opacity="1"><g transform="translate(28.814403, 36.141338)"><g><path d="M 0.984375 0.0585938 C 1.585938 0.0585938 1.902344 -0.269531 1.902344 -0.671875 C 1.902344 -1.101562 1.566406 -1.253906 1.261719 -1.367188 C 1.015625 -1.457031 0.789062 -1.519531 0.789062 -1.6875 C 0.789062 -1.820312 0.890625 -1.910156 1.097656 -1.910156 C 1.269531 -1.910156 1.429688 -1.828125 1.59375 -1.714844 L 1.867188 -2.082031 C 1.671875 -2.222656 1.417969 -2.363281 1.078125 -2.363281 C 0.558594 -2.363281 0.222656 -2.070312 0.222656 -1.65625 C 0.222656 -1.273438 0.558594 -1.097656 0.851562 -0.984375 C 1.097656 -0.890625 1.335938 -0.8125 1.335938 -0.636719 C 1.335938 -0.496094 1.230469 -0.394531 1 -0.394531 C 0.785156 -0.394531 0.589844 -0.484375 0.382812 -0.648438 L 0.105469 -0.269531 C 0.332031 -0.078125 0.675781 0.0585938 0.984375 0.0585938 Z M 0.984375 0.0585938 "/></g></g></g></g></svg>