<svg xmlns="http://www.w3.org/2000/svg" xmlns:xlink="http://www.w3.org/1999/xlink" width="49" zoomAndPan="magnify" viewBox="0 0 36.75 36.75" height="49" preserveAspectRatio="xMidYMid meet" version="1.0"><defs><clipPath id="d78469afb2"><path d="M 0 0.660156 L 36.5 0.660156 L 36.5 35.671875 L 0 35.671875 Z M 0 0.660156 " clip-rule="nonzero"/></clipPath></defs><g clip-path="url(#d78469afb2)"><path fill="#ffffff" d="M 27.128906 19.054688 L 27.691406 19.621094 L 27.691406 35.828125 L 25.0625 35.828125 L 12.605469 25.566406 L 12.605469 35.828125 L 8.726562 35.828125 L 8.726562 17.3125 L 23.816406 29.761719 L 23.816406 21.378906 C 21.972656 20.019531 16.859375 16.351562 13.222656 13.761719 L 16.378906 11.234375 C 26.59375 18.511719 26.988281 18.914062 27.128906 19.054688 Z M 17.488281 0.664062 L 7.695312 8.523438 L 7.695312 5.488281 L 3.738281 5.488281 L 3.738281 11.710938 L 0 14.710938 L 0 35.828125 L 3.902344 35.828125 L 3.902344 16.582031 L 17.503906 5.632812 L 32.597656 17.59375 L 32.597656 35.828125 L 36.503906 35.828125 L 36.503906 15.710938 Z M 17.488281 0.664062 " fill-opacity="1" fill-rule="nonzero"/></g></svg>