<svg width="141" height="36" viewBox="0 0 141 36" fill="none" xmlns="http://www.w3.org/2000/svg">
<path d="M26.276 35.32L24.692 34.264L23.724 32.24L24.824 31.756L25 22.648C24.868 22.076 24.868 21.548 24.912 20.888C24.956 20.228 24.648 19.788 24.032 19.48L23.372 18.996C23.372 18.688 23.372 18.38 23.328 18.028C23.284 17.72 23.064 17.456 22.756 17.236L22.272 17.06L20.248 17.588L18.752 16.224L18.576 14.948L19.544 14.288L21.744 11.12L20.908 10.328L20.732 9.36C21.26 9.36 21.788 9.272 22.316 9.14C22.844 8.964 23.328 8.788 23.724 8.568C23.856 8.348 24.032 8.216 24.208 8.172C24.428 8.128 24.604 8.084 24.824 8.084C25.484 8.172 26.056 8.348 26.628 8.612C27.2 8.876 27.772 9.184 28.3 9.448L28.432 9.932L28.96 10.196C28.124 10.328 27.376 10.592 26.628 10.988C25.924 11.34 25.22 11.78 24.56 12.352L24.208 12.836L22.844 14.244H23.196C24.12 13.804 25.088 13.452 26.012 13.144C26.936 12.924 27.86 12.66 28.828 12.44L29.136 11.956L29.576 11.604L33.36 13.144L33.756 14.112H34.064V14.42C32.92 14.552 31.82 14.684 30.764 14.816C29.664 14.992 28.652 15.212 27.596 15.432V15.916L27.772 16.576C27.068 18.908 26.672 21.328 26.628 23.88C26.54 26.388 26.496 28.984 26.54 31.58L26.76 34.088L26.276 35.32ZM2.912 34.044L1.944 32.724L1.46 32.548V31.58C2.12 29.908 2.56 28.104 2.692 26.124C2.824 24.188 2.868 22.208 2.868 20.228L2.208 18.16L1.416 18.028L0.932 18.16L0.404001 16.884C1.284 15.652 2.032 14.288 2.56 12.88C3.132 11.428 3.484 9.932 3.66 8.348L3.176 8.172L2.56 8.348C2.34 8.04 2.164 7.688 2.12 7.292C2.076 6.896 2.032 6.456 1.9 6.016C2.296 5.4 2.692 4.652 3.044 3.904C3.396 3.2 3.528 2.364 3.44 1.572H3.748C4.364 2.056 4.804 2.716 5.112 3.552C5.376 4.344 5.508 5.18 5.508 5.972L5.2 7.116C5.684 7.292 5.86 7.512 5.86 7.908C5.86 8.304 5.86 8.7 5.86 9.096L2.648 16.576L3.924 17.016C4.144 17.544 4.232 18.116 4.232 18.732C4.232 19.392 4.232 20.052 4.276 20.668C3.968 22.56 3.792 24.496 3.66 26.52C3.528 28.544 3.44 30.524 3.484 32.504L3.88 33.296L3.044 34.044H2.912ZM10.524 27.224L9.864 25.684C10.172 25.244 10.612 25.024 11.14 25.024C11.624 25.024 12.064 24.76 12.372 24.232C12.68 23.792 12.944 23.308 13.12 22.824C13.34 22.34 13.428 21.9 13.428 21.372L12.504 21.196C11.976 21.416 11.448 21.636 10.964 21.856C10.392 22.076 9.82 22.12 9.204 22.032L8.72 20.492L11.228 17.72L12.724 14.684L12.24 14.728L9.292 15.652L8.632 13.98L8.808 13.672C9.292 13.54 9.776 13.32 10.26 13.1C10.744 12.924 11.184 12.616 11.58 12.22C11.888 11.78 12.196 11.34 12.46 10.988C12.724 10.592 12.856 10.152 12.812 9.624H12.328C11.888 9.976 11.448 10.196 11.096 10.24C10.656 10.284 10.172 10.328 9.644 10.328L8.72 8.788H9.028L10.128 9.052L12.988 7.556L13.076 5.84L12.768 4.124H12.46L12.416 2.54H13.648L15.056 3.024L15.452 5.4L19.104 5.752V6.236L15.98 7.996L14.264 10.9L13.604 11.516L13.12 12H13.032V12.308H13.296L16.156 11.296L16.64 11.472L17.08 11.296L18.092 11.648V12.264L15.716 14.332L15.408 14.376L15.1 14.992L14.66 15.784L16.552 16.4L16.596 16.84C16.288 17.808 16.024 18.776 15.892 19.788C15.76 20.8 15.452 21.812 15.012 22.78L14.572 23.088L14.308 24.32H15.056L15.54 23.748L16.64 23.352L20.16 24.1V24.232L18.708 24.628L18.576 25.112C17.08 25.2 15.672 25.464 14.352 25.904C13.032 26.388 11.756 26.828 10.524 27.224ZM13.208 19.612V18.512L12.636 17.5L10.92 20.448H11.36L13.208 19.612ZM57.032 34.704L55.272 34.352L53.556 34.44L52.28 33.868L51.972 33.472L51.224 33.164C51.004 32.812 50.74 32.46 50.388 32.108C49.992 31.756 49.772 31.36 49.772 30.92L49.816 30.392L49.508 29.424H49.728L50.036 30.304H50.212C50.52 29.82 50.784 29.292 51.004 28.72C51.18 28.148 51.356 27.576 51.576 27.004H51.4L50.564 28.588L50.08 28.72L49.772 28.632L48.892 28.852L48.716 28.72L47.924 27.268C48.32 26.08 48.716 24.936 49.2 23.836C49.64 22.692 49.948 21.548 50.212 20.272H50.036C49.728 20.58 49.42 20.932 49.156 21.284C48.892 21.68 48.716 22.076 48.672 22.428H48.452V22.648H48.364L48.144 21.46C48.232 21.196 48.32 20.888 48.364 20.58C48.408 20.272 48.584 20.096 48.804 19.92C49.112 19.7 49.376 19.524 49.596 19.392C49.772 19.26 50.08 19.26 50.388 19.304V19.084L49.992 17.94L51.972 16.18C52.236 15.652 52.588 15.124 53.072 14.64C53.468 14.156 53.82 13.628 54.084 13.1H53.776L51.708 13.496L50.344 13.056L50.124 12.572H49.948L49.684 11.692L50.036 11.604L50.124 12.176L50.828 12.352L55.844 10.152L55.932 9.932C56.152 9.976 56.284 9.976 56.372 9.844C56.46 9.756 56.592 9.668 56.724 9.536L57.164 9.228L60.904 10.284C61.388 9.712 61.828 9.052 62.18 8.304C62.488 7.556 62.796 6.896 63.104 6.148L60.288 6.104C58.44 6.5 56.592 7.072 54.832 7.688C53.072 8.348 51.224 8.92 49.332 9.316L48.54 9.052L47.924 7.38C48.672 7.16 49.376 6.852 49.992 6.412C50.652 5.972 51.356 5.576 51.972 5.268C52.016 5.4 52.148 5.488 52.324 5.532C52.5 5.576 52.632 5.576 52.764 5.576C53.028 5.532 53.292 5.444 53.556 5.356C53.82 5.312 54.04 5.224 54.216 5.092V5.18L55.228 5.268C56.064 4.96 56.944 4.74 57.824 4.564C58.748 4.432 59.628 4.344 60.552 4.344C61.96 4.388 63.412 4.476 64.82 4.652C66.272 4.872 67.592 5.312 68.824 5.928V6.104L69.132 6.192L69.22 6.632L69 7.028L68.692 7.116L68.296 7.028L66.932 7.468L66.624 7.424C66.624 7.6 66.58 7.688 66.448 7.732C66.316 7.776 66.228 7.82 66.096 7.864C65.876 8.084 65.656 8.26 65.392 8.392C65.128 8.524 64.82 8.656 64.468 8.744V8.832L63.192 9.404C63.148 9.536 63.06 9.58 62.972 9.624C62.84 9.668 62.752 9.668 62.62 9.668L62.18 9.976L61.476 10.372V10.68L61.608 11.164C61.3 11.208 61.036 11.252 60.772 11.252C60.552 11.296 60.332 11.384 60.112 11.516V11.692L58.748 12.484C58.748 12.792 58.616 13.012 58.396 13.232C58.132 13.452 57.956 13.672 57.824 13.848L57.428 14.288H57.12C57.076 14.684 56.944 14.948 56.636 15.212C56.328 15.52 56.108 15.828 55.888 16.136L55.272 16.928C56.02 16.884 56.724 17.016 57.384 17.324C58.044 17.632 58.704 17.94 59.276 18.336L59.364 18.6H59.848L61.52 16.488L62.532 16.18L64.864 16.576L65.656 16.752L65.876 18.072L65.7 21.548C65.788 22.076 66.052 22.56 66.404 23C66.8 23.44 67.196 23.88 67.68 24.32L71.552 26.652V26.828L72.124 27.136L72.608 27.928H72.828L72.916 28.632L72.3 29.204L70.54 29.512L70.452 29.732C69.572 29.952 68.648 30.128 67.812 30.304C66.888 30.524 66.052 30.788 65.216 31.184V31.316C64.732 31.536 64.336 31.712 63.896 31.888C63.456 32.064 62.972 32.196 62.488 32.24L64.908 30.348L65.04 29.776H65.26L65.348 29.468H65.568L67.02 27.488L67.328 27.4L67.636 26.608C66.756 25.992 65.964 25.332 65.128 24.584C64.336 23.88 63.72 23 63.236 22.076C63.016 21.592 62.884 21.02 62.752 20.448C62.62 19.92 62.576 19.304 62.576 18.644L62.708 18.424L62.576 17.808H62.224L61.036 18.864L60.772 19.172L60.552 19.216L60.464 19.92C60.86 20.624 61.08 21.504 61.08 22.428C61.08 23.44 61.08 24.364 61.124 25.288C60.904 26.916 60.772 28.544 60.596 30.128C60.376 31.756 59.76 33.164 58.748 34.396L58.132 34.616L57.78 34.484L57.032 34.704ZM57.296 32.68C58.176 31.404 58.792 30.04 59.056 28.544C59.364 27.048 59.584 25.508 59.628 23.924L59.1 21.768H58.836C57.868 23.616 56.988 25.42 56.064 27.224C55.184 29.072 54.26 30.876 53.38 32.636L54.436 32.724L55.536 32.636L57.164 32.768L57.296 32.68ZM55.052 24.76L56.548 22.736L58.352 20.58V20.228C58.044 19.832 57.692 19.436 57.384 19.084C57.076 18.776 56.68 18.468 56.284 18.248L55.492 18.204C55.184 18.424 54.788 18.468 54.392 18.512C53.952 18.556 53.556 18.688 53.248 18.952L53.16 19.172L52.412 20.052V20.404L52.5 22.692L52.104 24.232C52.588 24.364 53.072 24.452 53.512 24.496C53.996 24.54 54.48 24.628 54.964 24.848L55.052 24.76ZM47.616 14.64L46.912 14.376L46.428 14.464L45.636 14.376V14.156L45.064 13.98L44.624 13.584L44.536 12.924H44.36C44.272 12.616 44.14 12.264 43.876 11.956C43.612 11.648 43.436 11.34 43.392 11.076L43.964 10.68C44.316 10.02 44.58 9.316 44.8 8.612C45.02 7.864 45.152 7.16 45.284 6.412L45.504 6.368L46.164 6.808V6.588H46.252C47.132 7.204 47.616 7.952 47.704 8.876C47.792 9.756 47.792 10.724 47.704 11.692C47.572 11.956 47.528 12.264 47.528 12.616C47.528 12.968 47.528 13.32 47.528 13.672C47.748 13.804 47.792 13.936 47.748 14.156C47.66 14.376 47.704 14.508 47.836 14.64H47.616ZM52.72 4.388L50.256 1.396L49.86 1.176L49.772 0.867999L49.508 0.691999L49.2 0.383997H49.596V0.0759988H50.256C51.004 0.383997 51.664 0.735998 52.324 1.088C52.984 1.484 53.644 1.88 54.304 2.32L54.7 2.716V2.892H54.876L55.184 3.772L53.6 4.168L53.336 4.08L52.72 4.388ZM118.016 33.384L116.828 32.372C116.784 31.756 116.652 31.184 116.432 30.612C116.168 30.04 115.86 29.512 115.508 29.072C115.288 28.852 115.068 28.72 114.76 28.676C114.452 28.632 114.144 28.632 113.836 28.632C113.528 28.676 113.22 28.764 113 28.984C112.78 29.204 112.516 29.38 112.208 29.556C112.076 29.424 112.076 29.248 112.076 29.072C112.076 28.94 112.076 28.764 112.076 28.544C112.956 27.092 113.704 25.508 114.188 23.836C114.716 22.12 115.024 20.404 115.156 18.556L115.068 18.292L115.156 17.984L115.112 17.324L115.508 17.236V16.928H115.596V16.752L116.08 16.62L116.652 16.796C117.224 16.532 117.752 16.312 118.236 16.092C118.72 15.872 119.248 15.74 119.732 15.696V15.52L121.14 15.564L121.272 13.892L120.92 13.672C119.82 14.112 118.764 14.552 117.664 14.904C116.564 15.344 115.464 15.74 114.32 16.136C114.276 15.872 114.232 15.564 114.276 15.212C114.276 14.904 114.188 14.64 113.968 14.376L114.276 14.244L114.54 13.54C114.936 13.32 115.288 13.056 115.64 12.836C115.948 12.572 116.256 12.264 116.52 11.868H116.74C116.916 11.56 117.136 11.252 117.4 10.988C117.62 10.68 117.752 10.372 117.708 9.976L117.532 9.052L118.236 8.172C118.852 8.084 119.38 7.864 119.776 7.512C120.216 7.204 120.7 6.896 121.272 6.632L121.404 6.324L121.976 5.664L120.524 4.256V3.86L121.58 3.904C122.196 3.948 122.768 4.08 123.296 4.212C123.868 4.344 124.352 4.608 124.836 4.96L125.232 5.488L125.32 6.324C124.924 6.412 124.528 6.456 124.088 6.5C123.648 6.544 123.252 6.764 122.9 7.116L122.812 7.248L122.02 7.512L121.976 7.732L119.776 8.92V9.14L120.876 9.756L120.92 10.328L119.732 10.9V11.076L118.412 12.22H118.192L118.104 12.528H117.884V12.748L117.664 12.968H117.972C118.72 12.704 119.468 12.44 120.216 12.176C120.964 11.956 121.756 11.824 122.636 11.868L124.352 12.264V12.44H124.572L124.616 12.924L124.088 13.32C123.956 14.332 123.648 15.3 123.252 16.268C122.9 17.236 122.416 18.204 121.932 19.084H121.712L121.492 19.348L120.392 20.272H120.128V20.008L119.6 19.876C119.38 20.316 119.028 20.668 118.588 20.976C118.104 21.284 117.664 21.548 117.312 21.856L117.004 21.944L116.344 23.22H116.124C115.948 23.968 115.684 24.716 115.288 25.42C114.892 26.124 114.496 26.828 114.144 27.576H116.124C116.432 27.576 116.74 27.708 117.004 27.928C117.268 28.148 117.488 28.412 117.62 28.676L117.84 29.072L118.192 29.644C118.456 30.128 118.676 30.656 118.852 31.184C118.984 31.668 119.072 32.196 119.116 32.768L118.412 32.9L118.016 33.384ZM138.652 33.868L138.388 33.648C138.124 33.252 137.904 32.944 137.728 32.548C137.508 32.152 137.42 31.712 137.508 31.184C137.728 30.7 137.772 30.172 137.816 29.6C137.816 29.072 137.816 28.544 137.86 28.016C137.684 23.924 137.552 19.744 137.508 15.52C137.464 11.34 136.804 7.292 135.572 3.376H135.748V3.068H135.66C136.276 3.112 136.936 3.244 137.552 3.508C138.08 3.772 138.652 4.08 139.136 4.476V4.652L139.444 4.74L139.532 5.048L139.928 5.224L140.28 6.456C140.104 6.588 140.016 6.764 140.016 6.984C140.016 7.204 140.016 7.38 140.016 7.512L140.192 8.832L139.928 9.404C140.148 9.8 140.236 10.24 140.192 10.636C140.148 11.076 140.104 11.472 140.06 11.956L139.928 12.572L140.104 13.936L139.796 16.752L139.884 17.06L139.62 18.468L139.708 18.864L139.576 20.448L139.664 20.844L139.576 22.208C139.664 22.428 139.708 22.604 139.752 22.824C139.796 23.044 139.796 23.264 139.796 23.528L139.488 24.584L139.884 26.124L139.62 27.444L139.972 29.688L139.708 32.46L139.84 33.428C139.576 33.34 139.4 33.384 139.268 33.56C139.136 33.78 138.916 33.868 138.652 33.868ZM119.424 30.964L119.468 30.7L119.248 29.336L118.852 29.028V28.632L119.072 28.016L119.732 27.796L119.864 27.62L120.568 27.312C120.876 26.916 121.14 26.476 121.404 26.036C121.668 25.684 121.888 25.244 122.02 24.76H121.712L119.644 24.98L118.984 24.892V24.76C119.776 24.276 120.656 23.88 121.536 23.572C122.46 23.264 123.384 23.22 124.44 23.396L124.924 23.572L125.232 24.496C124.704 24.892 124.176 25.332 123.736 25.772C123.252 26.3 122.856 26.828 122.416 27.356L121.228 28.72H121.448L122.636 28.148V28.236L120.568 30.128V30.304H120.172L120.04 30.744L119.424 30.964ZM106.488 20.14L106.268 20.052V19.964C108.38 17.148 110.228 14.244 111.768 11.252C113.308 8.304 114.496 5.18 115.332 1.924L115.112 1.396L115.244 1.44L115.376 0.955998H115.684L115.948 1.044V0.955998H116.124C116.696 1.044 117.268 1.22 117.708 1.44C118.192 1.704 118.72 1.924 119.248 2.144L119.556 3.024C119.424 3.244 119.204 3.332 118.94 3.332C118.632 3.376 118.412 3.508 118.28 3.772L117.972 4.256L117.488 4.3C117.576 4.652 117.532 4.96 117.312 5.18C117.092 5.4 116.96 5.62 116.96 5.884H116.74C116.388 6.368 116.036 6.896 115.728 7.424C115.376 7.952 115.068 8.48 114.76 9.052H114.54C114.188 9.844 113.792 10.636 113.308 11.384C112.78 12.176 112.296 12.924 111.9 13.672H111.68C111.02 14.728 110.316 15.784 109.612 16.752C108.864 17.764 108.028 18.688 107.06 19.656L106.488 20.14ZM128.796 20.228C128.268 19.876 127.96 19.392 127.916 18.776C127.872 18.204 127.872 17.544 127.916 16.884L128.488 12.572L128.444 11.164H128.972V11.076L129.5 11.12L130.116 11.516C130.424 12.352 130.6 13.188 130.644 14.156C130.688 15.124 130.688 16.092 130.644 17.06C130.6 17.544 130.556 18.072 130.556 18.512C130.512 18.996 130.38 19.392 129.984 19.612L129.104 19.568L128.796 20.228ZM120.568 18.82V18.512L120.92 17.192H120.7C120.48 17.412 120.26 17.632 119.996 17.808C119.688 18.028 119.512 18.248 119.468 18.468L120.568 18.82Z" fill="#333333"/>
</svg>
