<svg width="47" height="11" viewBox="0 0 47 11" fill="none" xmlns="http://www.w3.org/2000/svg">
<path d="M4.29883 2.05469H6.25V7.89648C6.25 8.2207 6.18945 8.51953 6.06836 8.79297C5.95117 9.0625 5.77344 9.29492 5.53516 9.49023C5.29688 9.68555 4.99805 9.83984 4.63867 9.95312C4.2832 10.0625 3.86719 10.1172 3.39062 10.1172C3.125 10.1172 2.87891 10.0938 2.65234 10.0469C2.42578 10 2.21484 9.93945 2.01953 9.86523C1.82422 9.78711 1.64062 9.70117 1.46875 9.60742C1.29688 9.50977 1.13281 9.41016 0.976562 9.30859L1.52734 8.61133C1.60938 8.69336 1.70898 8.77539 1.82617 8.85742C1.94336 8.93945 2.07227 9.01367 2.21289 9.08008C2.35742 9.14648 2.51172 9.20117 2.67578 9.24414C2.83984 9.28711 3.00977 9.30859 3.18555 9.30859C3.5293 9.30859 3.80078 9.21875 4 9.03906C4.19922 8.85938 4.29883 8.61719 4.29883 8.3125V2.05469ZM11.0605 10.1113C10.584 10.1113 10.1426 10.0332 9.73633 9.87695C9.33398 9.7207 8.98438 9.50586 8.6875 9.23242C8.39453 8.95898 8.16406 8.63867 7.99609 8.27148C7.83203 7.90039 7.75 7.5 7.75 7.07031C7.75 6.60938 7.83203 6.18555 7.99609 5.79883C8.16406 5.4082 8.39453 5.07227 8.6875 4.79102C8.98047 4.50977 9.32812 4.29102 9.73047 4.13477C10.1367 3.97461 10.5781 3.89453 11.0547 3.89453C11.5312 3.89453 11.9727 3.97266 12.3789 4.12891C12.7852 4.28125 13.1348 4.49219 13.4277 4.76172C13.7246 5.03125 13.957 5.34961 14.125 5.7168C14.293 6.08008 14.377 6.47266 14.377 6.89453C14.377 7.33594 14.293 7.75195 14.125 8.14258C13.9609 8.5332 13.7305 8.875 13.4336 9.16797C13.1406 9.45703 12.791 9.6875 12.3848 9.85938C11.9785 10.0273 11.5371 10.1113 11.0605 10.1113ZM11.2715 9.37891C11.4355 9.37891 11.5879 9.32617 11.7285 9.2207C11.8691 9.11133 11.9902 8.9668 12.0918 8.78711C12.1973 8.60352 12.2773 8.39258 12.332 8.1543C12.3906 7.91602 12.4199 7.66797 12.4199 7.41016C12.4199 7.02734 12.3906 6.66797 12.332 6.33203C12.2773 5.99219 12.1855 5.69531 12.0566 5.44141C11.9277 5.1875 11.7598 4.98633 11.5527 4.83789C11.3496 4.68945 11.0996 4.61523 10.8027 4.61523C10.6582 4.61523 10.5195 4.66797 10.3867 4.77344C10.2539 4.87891 10.1367 5.02148 10.0352 5.20117C9.93359 5.37695 9.85156 5.58203 9.78906 5.81641C9.73047 6.04688 9.70117 6.29102 9.70117 6.54883C9.70117 6.93555 9.73633 7.30078 9.80664 7.64453C9.88086 7.98828 9.98438 8.28906 10.1172 8.54688C10.2539 8.80078 10.418 9.00391 10.6094 9.15625C10.8047 9.30469 11.0254 9.37891 11.2715 9.37891ZM15.8945 1.60938L17.1777 0.941406H17.7227V4.41602C17.957 4.26367 18.2129 4.13867 18.4902 4.04102C18.7676 3.94336 19.0352 3.89453 19.293 3.89453C19.668 3.89453 20.0137 3.9668 20.3301 4.11133C20.6465 4.25195 20.9199 4.44531 21.1504 4.69141C21.3809 4.93359 21.5605 5.2168 21.6895 5.54102C21.8184 5.86523 21.8828 6.20898 21.8828 6.57227C21.8828 6.89258 21.8418 7.20312 21.7598 7.50391C21.6777 7.80078 21.5605 8.08008 21.4082 8.3418C21.2598 8.60352 21.0801 8.84375 20.8691 9.0625C20.6582 9.28125 20.4238 9.46875 20.166 9.625C19.9082 9.77734 19.6309 9.89648 19.334 9.98242C19.041 10.0684 18.7344 10.1113 18.4141 10.1113C17.9414 10.1113 17.4883 10.0488 17.0547 9.92383C16.625 9.79492 16.2383 9.5918 15.8945 9.31445V1.60938ZM17.7227 8.91602C17.7852 8.9707 17.8496 9.02344 17.916 9.07422C17.9824 9.125 18.0527 9.16992 18.127 9.20898C18.2012 9.24805 18.2812 9.2793 18.3672 9.30273C18.4531 9.32617 18.5469 9.33789 18.6484 9.33789C18.8516 9.33789 19.0352 9.27734 19.1992 9.15625C19.3672 9.03125 19.5098 8.86133 19.627 8.64648C19.748 8.42773 19.8398 8.17188 19.9023 7.87891C19.9688 7.58203 20.002 7.26367 20.002 6.92383C20.002 6.66992 19.9688 6.43164 19.9023 6.20898C19.8359 5.98242 19.7441 5.78516 19.627 5.61719C19.5137 5.44531 19.3789 5.31055 19.2227 5.21289C19.0664 5.11523 18.9004 5.06641 18.7246 5.06641C18.5566 5.06641 18.3809 5.11719 18.1973 5.21875C18.0137 5.31641 17.8555 5.44141 17.7227 5.59375V8.91602ZM26.2305 2.05469H28.1816V9.18555H32.2363V10H26.2305V2.05469ZM33.4551 4.54492L34.7324 3.87695H35.2773V10H33.4551V4.54492ZM33.3789 1.9082C33.3789 1.78711 33.4043 1.67188 33.4551 1.5625C33.5059 1.45312 33.5762 1.35937 33.666 1.28125C33.7559 1.20313 33.8594 1.14062 33.9766 1.09375C34.0938 1.04688 34.2207 1.02344 34.3574 1.02344C34.4941 1.02344 34.6211 1.04688 34.7383 1.09375C34.8594 1.14062 34.9629 1.20313 35.0488 1.28125C35.1387 1.35937 35.209 1.45312 35.2598 1.5625C35.3105 1.67188 35.3359 1.78711 35.3359 1.9082C35.3359 2.0293 35.3105 2.14453 35.2598 2.25391C35.209 2.35938 35.1387 2.45117 35.0488 2.5293C34.9629 2.60742 34.8594 2.66992 34.7383 2.7168C34.6211 2.76367 34.4941 2.78711 34.3574 2.78711C34.2207 2.78711 34.0938 2.76367 33.9766 2.7168C33.8594 2.66992 33.7559 2.60742 33.666 2.5293C33.5762 2.45117 33.5059 2.35938 33.4551 2.25391C33.4043 2.14453 33.3789 2.0293 33.3789 1.9082ZM37.6387 8.32422C37.7441 8.65234 37.8945 8.9082 38.0898 9.0918C38.2891 9.27148 38.5371 9.36133 38.834 9.36133C38.959 9.36133 39.0723 9.3457 39.1738 9.31445C39.2793 9.2832 39.3691 9.24023 39.4434 9.18555C39.5215 9.12695 39.5801 9.06055 39.6191 8.98633C39.6621 8.91211 39.6836 8.83203 39.6836 8.74609C39.6836 8.60547 39.6562 8.48047 39.6016 8.37109C39.5508 8.25781 39.4785 8.15625 39.3848 8.06641C39.291 7.97656 39.1797 7.89453 39.0508 7.82031C38.9219 7.74219 38.7832 7.66992 38.6348 7.60352C38.3965 7.49805 38.1602 7.38477 37.9258 7.26367C37.6914 7.13867 37.4805 6.99805 37.293 6.8418C37.1055 6.68164 36.9531 6.5 36.8359 6.29688C36.7227 6.09375 36.666 5.85938 36.666 5.59375C36.666 5.33984 36.7188 5.10938 36.8242 4.90234C36.9297 4.69141 37.0781 4.51172 37.2695 4.36328C37.4609 4.21484 37.6895 4.09961 37.9551 4.01758C38.2207 3.93555 38.5137 3.89453 38.834 3.89453C39.127 3.89453 39.3867 3.92188 39.6133 3.97656C39.8398 4.03125 40.0391 4.10938 40.2109 4.21094C40.3828 4.3125 40.5352 4.4375 40.668 4.58594C40.8008 4.73047 40.9199 4.89453 41.0254 5.07812L39.9707 5.44141C39.916 5.25 39.8496 5.10156 39.7715 4.99609C39.6934 4.89062 39.6113 4.8125 39.5254 4.76172C39.4395 4.70703 39.3555 4.67383 39.2734 4.66211C39.1914 4.65039 39.1191 4.64453 39.0566 4.64453C38.9434 4.64453 38.8359 4.6582 38.7344 4.68555C38.6328 4.70898 38.543 4.74414 38.4648 4.79102C38.3867 4.83789 38.3242 4.89648 38.2773 4.9668C38.2305 5.0332 38.207 5.11133 38.207 5.20117C38.207 5.31445 38.2363 5.42188 38.2949 5.52344C38.3535 5.625 38.4355 5.7207 38.541 5.81055C38.6465 5.89648 38.7695 5.97852 38.9102 6.05664C39.0547 6.13477 39.2109 6.20898 39.3789 6.2793C39.6328 6.38477 39.8789 6.50195 40.1172 6.63086C40.3594 6.75977 40.5742 6.90625 40.7617 7.07031C40.9492 7.23047 41.0996 7.41016 41.2129 7.60938C41.3262 7.80469 41.3828 8.02344 41.3828 8.26562C41.3828 8.52734 41.3398 8.77148 41.2539 8.99805C41.168 9.22461 41.0273 9.42188 40.832 9.58984C40.6406 9.75781 40.3906 9.89062 40.082 9.98828C39.7773 10.0859 39.4062 10.1348 38.9688 10.1348C38.5938 10.1348 38.2754 10.0918 38.0137 10.0059C37.7559 9.91992 37.5371 9.81055 37.3574 9.67773C37.1777 9.54102 37.0293 9.38867 36.9121 9.2207C36.7949 9.05273 36.6914 8.88672 36.6016 8.72266L37.6387 8.32422ZM42.0801 4.75V4.32227L43.0469 4V2.78125L44.3184 2.11328H44.8633V4H46.334V4.75H44.8633V8.61133C44.8633 8.73242 44.8945 8.83789 44.957 8.92773C45.0195 9.01758 45.1016 9.0625 45.2031 9.0625C45.2656 9.0625 45.334 9.04102 45.4082 8.99805C45.4863 8.95508 45.5586 8.90625 45.625 8.85156C45.6953 8.79297 45.7559 8.73438 45.8066 8.67578C45.8613 8.61719 45.9004 8.57227 45.9238 8.54102L46.5449 9.0332C46.4434 9.18945 46.332 9.33594 46.2109 9.47266C46.0898 9.60547 45.9512 9.7207 45.7949 9.81836C45.6387 9.91602 45.459 9.99219 45.2559 10.0469C45.0527 10.1055 44.8184 10.1348 44.5527 10.1348C44.2988 10.1348 44.0781 10.0977 43.8906 10.0234C43.7031 9.95312 43.5469 9.85352 43.4219 9.72461C43.2969 9.5957 43.2031 9.44141 43.1406 9.26172C43.0781 9.08203 43.0469 8.88281 43.0469 8.66406V4.75H42.0801Z" fill="#12852D"/>
</svg>
