<svg width="49" height="11" viewBox="0 0 49 11" fill="none" xmlns="http://www.w3.org/2000/svg">
<path d="M-0.00390625 0.0546875H1.89453L4.64258 5.48047L7.34961 0.0546875H9.20703V8H7.26172V2.82031L4.66602 8H3.91602L1.23242 2.76172V8H-0.00390625V0.0546875ZM13.7891 8.13477C13.3633 8.13477 12.9629 8.05664 12.5879 7.90039C12.2129 7.74023 11.8867 7.52734 11.6094 7.26172C11.332 6.99219 11.1113 6.68164 10.9473 6.33008C10.7871 5.97461 10.707 5.59961 10.707 5.20508C10.707 4.73242 10.7812 4.29492 10.9297 3.89258C11.0781 3.48633 11.2891 3.13477 11.5625 2.83789C11.8359 2.54102 12.1621 2.31055 12.541 2.14648C12.9238 1.97852 13.3496 1.89453 13.8184 1.89453C14.2363 1.89453 14.6191 1.96094 14.9668 2.09375C15.3145 2.22656 15.6113 2.4082 15.8574 2.63867C16.1074 2.86914 16.3008 3.14062 16.4375 3.45312C16.5742 3.76562 16.6426 4.09961 16.6426 4.45508H12.4883C12.5039 4.78711 12.5527 5.10352 12.6348 5.4043C12.7207 5.70508 12.834 5.9707 12.9746 6.20117C13.1152 6.42773 13.2793 6.60938 13.4668 6.74609C13.6582 6.87891 13.8691 6.94531 14.0996 6.94531C14.2988 6.94531 14.4941 6.91211 14.6855 6.8457C14.8809 6.77539 15.0605 6.68164 15.2246 6.56445C15.3887 6.44336 15.5312 6.30469 15.6523 6.14844C15.7734 5.98828 15.8613 5.81641 15.916 5.63281L16.8418 5.7793C16.748 6.10352 16.5977 6.4082 16.3906 6.69336C16.1875 6.97852 15.9473 7.22852 15.6699 7.44336C15.3965 7.6582 15.0977 7.82812 14.7734 7.95312C14.4492 8.07422 14.1211 8.13477 13.7891 8.13477ZM14.5566 3.83398C14.541 3.6582 14.502 3.49805 14.4395 3.35352C14.3809 3.20508 14.3047 3.07812 14.2109 2.97266C14.1172 2.86719 14.0078 2.78711 13.8828 2.73242C13.7578 2.67383 13.623 2.64453 13.4785 2.64453C13.3652 2.64453 13.2539 2.67383 13.1445 2.73242C13.0352 2.78711 12.9355 2.86719 12.8457 2.97266C12.7598 3.07422 12.6855 3.19922 12.623 3.34766C12.5645 3.49219 12.5254 3.6543 12.5059 3.83398H14.5566ZM18.7754 6.32422C18.8809 6.65234 19.0312 6.9082 19.2266 7.0918C19.4258 7.27148 19.6738 7.36133 19.9707 7.36133C20.0957 7.36133 20.209 7.3457 20.3105 7.31445C20.416 7.2832 20.5059 7.24023 20.5801 7.18555C20.6582 7.12695 20.7168 7.06055 20.7559 6.98633C20.7988 6.91211 20.8203 6.83203 20.8203 6.74609C20.8203 6.60547 20.793 6.48047 20.7383 6.37109C20.6875 6.25781 20.6152 6.15625 20.5215 6.06641C20.4277 5.97656 20.3164 5.89453 20.1875 5.82031C20.0586 5.74219 19.9199 5.66992 19.7715 5.60352C19.5332 5.49805 19.2969 5.38477 19.0625 5.26367C18.8281 5.13867 18.6172 4.99805 18.4297 4.8418C18.2422 4.68164 18.0898 4.5 17.9727 4.29688C17.8594 4.09375 17.8027 3.85938 17.8027 3.59375C17.8027 3.33984 17.8555 3.10938 17.9609 2.90234C18.0664 2.69141 18.2148 2.51172 18.4062 2.36328C18.5977 2.21484 18.8262 2.09961 19.0918 2.01758C19.3574 1.93555 19.6504 1.89453 19.9707 1.89453C20.2637 1.89453 20.5234 1.92188 20.75 1.97656C20.9766 2.03125 21.1758 2.10938 21.3477 2.21094C21.5195 2.3125 21.6719 2.4375 21.8047 2.58594C21.9375 2.73047 22.0566 2.89453 22.1621 3.07812L21.1074 3.44141C21.0527 3.25 20.9863 3.10156 20.9082 2.99609C20.8301 2.89062 20.748 2.8125 20.6621 2.76172C20.5762 2.70703 20.4922 2.67383 20.4102 2.66211C20.3281 2.65039 20.2559 2.64453 20.1934 2.64453C20.0801 2.64453 19.9727 2.6582 19.8711 2.68555C19.7695 2.70898 19.6797 2.74414 19.6016 2.79102C19.5234 2.83789 19.4609 2.89648 19.4141 2.9668C19.3672 3.0332 19.3438 3.11133 19.3438 3.20117C19.3438 3.31445 19.373 3.42188 19.4316 3.52344C19.4902 3.625 19.5723 3.7207 19.6777 3.81055C19.7832 3.89648 19.9062 3.97852 20.0469 4.05664C20.1914 4.13477 20.3477 4.20898 20.5156 4.2793C20.7695 4.38477 21.0156 4.50195 21.2539 4.63086C21.4961 4.75977 21.7109 4.90625 21.8984 5.07031C22.0859 5.23047 22.2363 5.41016 22.3496 5.60938C22.4629 5.80469 22.5195 6.02344 22.5195 6.26562C22.5195 6.52734 22.4766 6.77148 22.3906 6.99805C22.3047 7.22461 22.1641 7.42188 21.9688 7.58984C21.7773 7.75781 21.5273 7.89062 21.2188 7.98828C20.9141 8.08594 20.543 8.13477 20.1055 8.13477C19.7305 8.13477 19.4121 8.0918 19.1504 8.00586C18.8926 7.91992 18.6738 7.81055 18.4941 7.67773C18.3145 7.54102 18.166 7.38867 18.0488 7.2207C17.9316 7.05273 17.8281 6.88672 17.7383 6.72266L18.7754 6.32422ZM24.4473 6.32422C24.5527 6.65234 24.7031 6.9082 24.8984 7.0918C25.0977 7.27148 25.3457 7.36133 25.6426 7.36133C25.7676 7.36133 25.8809 7.3457 25.9824 7.31445C26.0879 7.2832 26.1777 7.24023 26.252 7.18555C26.3301 7.12695 26.3887 7.06055 26.4277 6.98633C26.4707 6.91211 26.4922 6.83203 26.4922 6.74609C26.4922 6.60547 26.4648 6.48047 26.4102 6.37109C26.3594 6.25781 26.2871 6.15625 26.1934 6.06641C26.0996 5.97656 25.9883 5.89453 25.8594 5.82031C25.7305 5.74219 25.5918 5.66992 25.4434 5.60352C25.2051 5.49805 24.9688 5.38477 24.7344 5.26367C24.5 5.13867 24.2891 4.99805 24.1016 4.8418C23.9141 4.68164 23.7617 4.5 23.6445 4.29688C23.5312 4.09375 23.4746 3.85938 23.4746 3.59375C23.4746 3.33984 23.5273 3.10938 23.6328 2.90234C23.7383 2.69141 23.8867 2.51172 24.0781 2.36328C24.2695 2.21484 24.498 2.09961 24.7637 2.01758C25.0293 1.93555 25.3223 1.89453 25.6426 1.89453C25.9355 1.89453 26.1953 1.92188 26.4219 1.97656C26.6484 2.03125 26.8477 2.10938 27.0195 2.21094C27.1914 2.3125 27.3438 2.4375 27.4766 2.58594C27.6094 2.73047 27.7285 2.89453 27.834 3.07812L26.7793 3.44141C26.7246 3.25 26.6582 3.10156 26.5801 2.99609C26.502 2.89062 26.4199 2.8125 26.334 2.76172C26.248 2.70703 26.1641 2.67383 26.082 2.66211C26 2.65039 25.9277 2.64453 25.8652 2.64453C25.752 2.64453 25.6445 2.6582 25.543 2.68555C25.4414 2.70898 25.3516 2.74414 25.2734 2.79102C25.1953 2.83789 25.1328 2.89648 25.0859 2.9668C25.0391 3.0332 25.0156 3.11133 25.0156 3.20117C25.0156 3.31445 25.0449 3.42188 25.1035 3.52344C25.1621 3.625 25.2441 3.7207 25.3496 3.81055C25.4551 3.89648 25.5781 3.97852 25.7188 4.05664C25.8633 4.13477 26.0195 4.20898 26.1875 4.2793C26.4414 4.38477 26.6875 4.50195 26.9258 4.63086C27.168 4.75977 27.3828 4.90625 27.5703 5.07031C27.7578 5.23047 27.9082 5.41016 28.0215 5.60938C28.1348 5.80469 28.1914 6.02344 28.1914 6.26562C28.1914 6.52734 28.1484 6.77148 28.0625 6.99805C27.9766 7.22461 27.8359 7.42188 27.6406 7.58984C27.4492 7.75781 27.1992 7.89062 26.8906 7.98828C26.5859 8.08594 26.2148 8.13477 25.7773 8.13477C25.4023 8.13477 25.084 8.0918 24.8223 8.00586C24.5645 7.91992 24.3457 7.81055 24.166 7.67773C23.9863 7.54102 23.8379 7.38867 23.7207 7.2207C23.6035 7.05273 23.5 6.88672 23.4102 6.72266L24.4473 6.32422ZM32.293 4.90625C32.1172 4.98047 31.9395 5.07031 31.7598 5.17578C31.5801 5.28125 31.418 5.40039 31.2734 5.5332C31.1328 5.66211 31.0156 5.80664 30.9219 5.9668C30.832 6.12305 30.7871 6.29102 30.7871 6.4707C30.7871 6.66992 30.8379 6.82617 30.9395 6.93945C31.0449 7.05273 31.1855 7.10938 31.3613 7.10938C31.5098 7.10938 31.6562 7.06641 31.8008 6.98047C31.9453 6.89062 32.1094 6.77539 32.293 6.63477V4.90625ZM28.9648 3.52344C29.0273 3.27344 29.1367 3.04688 29.293 2.84375C29.4492 2.63672 29.6426 2.46289 29.873 2.32227C30.1074 2.17773 30.373 2.06641 30.6699 1.98828C30.9707 1.91016 31.2949 1.87109 31.6426 1.87109C32.0723 1.87109 32.4434 1.91016 32.7559 1.98828C33.0684 2.06641 33.3242 2.17773 33.5234 2.32227C33.7266 2.46289 33.875 2.63477 33.9688 2.83789C34.0664 3.03711 34.1152 3.26172 34.1152 3.51172V6.94531C34.1152 7.19141 34.1914 7.40039 34.3438 7.57227C34.4961 7.74414 34.7109 7.88672 34.9883 8H32.832C32.7695 8 32.709 7.98242 32.6504 7.94727C32.5918 7.91211 32.5391 7.86719 32.4922 7.8125C32.4453 7.75391 32.4043 7.69141 32.3691 7.625C32.334 7.55859 32.3086 7.49414 32.293 7.43164C32.1836 7.5332 32.0801 7.62695 31.9824 7.71289C31.8848 7.79492 31.7773 7.86523 31.6602 7.92383C31.543 7.98242 31.4121 8.02734 31.2676 8.05859C31.123 8.09375 30.9492 8.11133 30.7461 8.11133C30.4688 8.11133 30.2188 8.07227 29.9961 7.99414C29.7773 7.91602 29.5898 7.80859 29.4336 7.67188C29.2812 7.53125 29.1641 7.36719 29.082 7.17969C29 6.98828 28.959 6.78125 28.959 6.55859C28.959 6.21484 29.0547 5.91992 29.2461 5.67383C29.4375 5.42773 29.6895 5.21289 30.002 5.0293C30.3184 4.8457 30.6758 4.68555 31.0742 4.54883C31.4727 4.41211 31.8789 4.28125 32.293 4.15625V3.57031C32.293 3.37891 32.2734 3.2168 32.2344 3.08398C32.1953 2.94727 32.1406 2.83789 32.0703 2.75586C32 2.66992 31.9141 2.60938 31.8125 2.57422C31.7148 2.53516 31.6055 2.51562 31.4844 2.51562C31.3398 2.51562 31.2109 2.54297 31.0977 2.59766C30.9844 2.65234 30.8867 2.72656 30.8047 2.82031C30.7227 2.91406 30.6562 3.02148 30.6055 3.14258C30.5547 3.26367 30.5176 3.39062 30.4941 3.52344H28.9648ZM42.2773 2.41602V3.04297H41.1816C41.2754 3.19141 41.3535 3.35156 41.416 3.52344C41.4785 3.69531 41.5098 3.88086 41.5098 4.08008C41.5098 4.41211 41.4336 4.70898 41.2812 4.9707C41.1328 5.22852 40.9219 5.44727 40.6484 5.62695C40.3789 5.80664 40.0547 5.94336 39.6758 6.03711C39.2969 6.13086 38.8789 6.17773 38.4219 6.17773C38.2891 6.17773 38.1523 6.16992 38.0117 6.1543C37.875 6.13477 37.75 6.11523 37.6367 6.0957C37.5547 6.1543 37.4902 6.23828 37.4434 6.34766C37.3965 6.45312 37.373 6.55664 37.373 6.6582C37.373 6.68945 37.3809 6.71875 37.3965 6.74609C37.416 6.76953 37.457 6.79297 37.5195 6.81641C37.582 6.83984 37.6719 6.86133 37.7891 6.88086C37.9102 6.90039 38.0742 6.91992 38.2812 6.93945C38.4883 6.95898 38.7441 6.97852 39.0488 6.99805C39.3574 7.01367 39.7285 7.0293 40.1621 7.04492C40.5605 7.06055 40.8945 7.10547 41.1641 7.17969C41.4336 7.25391 41.6504 7.35156 41.8145 7.47266C41.9824 7.58984 42.1016 7.72852 42.1719 7.88867C42.2422 8.04883 42.2773 8.22266 42.2773 8.41016C42.2773 8.74609 42.1875 9.05469 42.0078 9.33594C41.832 9.62109 41.5762 9.86719 41.2402 10.0742C40.9043 10.2812 40.4961 10.4414 40.0156 10.5547C39.5352 10.6719 38.9902 10.7305 38.3809 10.7305C37.834 10.7305 37.3555 10.6953 36.9453 10.625C36.5391 10.5547 36.1992 10.459 35.9258 10.3379C35.6523 10.2207 35.4473 10.0801 35.3105 9.91602C35.1738 9.75586 35.1055 9.58398 35.1055 9.40039C35.1055 9.26758 35.1445 9.13281 35.2227 8.99609C35.3008 8.85938 35.4023 8.72266 35.5273 8.58594C35.6562 8.45312 35.7988 8.32031 35.9551 8.1875C36.1152 8.05859 36.2773 7.93359 36.4414 7.8125C36.207 7.73438 36.0195 7.63672 35.8789 7.51953C35.7422 7.40234 35.6738 7.26953 35.6738 7.12109C35.6738 7.01562 35.7051 6.9043 35.7676 6.78711C35.834 6.66992 35.9199 6.55469 36.0254 6.44141C36.1348 6.32422 36.2617 6.21484 36.4062 6.11328C36.5547 6.01172 36.7109 5.92383 36.875 5.84961C36.6797 5.75977 36.502 5.66211 36.3418 5.55664C36.1855 5.44727 36.0527 5.32422 35.9434 5.1875C35.834 5.05078 35.75 4.89648 35.6914 4.72461C35.6328 4.55273 35.6035 4.35938 35.6035 4.14453C35.6035 3.80469 35.6777 3.49609 35.8262 3.21875C35.9785 2.9375 36.1875 2.69922 36.4531 2.50391C36.7188 2.30469 37.0293 2.15234 37.3848 2.04688C37.7441 1.9375 38.1328 1.88281 38.5508 1.88281C38.75 1.88281 38.9453 1.89844 39.1367 1.92969C39.3281 1.95703 39.5059 1.99609 39.6699 2.04688C39.8379 2.09766 39.9883 2.1543 40.1211 2.2168C40.2539 2.2793 40.3594 2.3457 40.4375 2.41602H42.2773ZM39.9395 8.12891C39.6699 8.12891 39.3984 8.125 39.125 8.11719C38.8555 8.10938 38.5996 8.09766 38.3574 8.08203C38.1152 8.07031 37.8945 8.05469 37.6953 8.03516C37.4961 8.01953 37.3359 8.00391 37.2148 7.98828C37.1484 8.03906 37.0898 8.09961 37.0391 8.16992C36.9922 8.24414 36.9512 8.32031 36.916 8.39844C36.8848 8.47656 36.8594 8.55664 36.8398 8.63867C36.8242 8.7207 36.8164 8.79883 36.8164 8.87305C36.8164 8.98633 36.8574 9.09961 36.9395 9.21289C37.0254 9.32617 37.1523 9.42773 37.3203 9.51758C37.4922 9.61133 37.7051 9.6875 37.959 9.74609C38.2168 9.80469 38.5156 9.83398 38.8555 9.83398C39.2227 9.83398 39.5508 9.80078 39.8398 9.73438C40.1328 9.66797 40.3789 9.58398 40.5781 9.48242C40.7812 9.38477 40.9355 9.27539 41.041 9.1543C41.1504 9.03711 41.2051 8.92578 41.2051 8.82031C41.2051 8.59766 41.0918 8.42578 40.8652 8.30469C40.6387 8.1875 40.3301 8.12891 39.9395 8.12891ZM38.6328 5.70312C38.7656 5.70312 38.8945 5.66602 39.0195 5.5918C39.1445 5.51758 39.2559 5.41797 39.3535 5.29297C39.4512 5.16406 39.5293 5.01953 39.5879 4.85938C39.6465 4.69531 39.6758 4.52539 39.6758 4.34961C39.6758 4.0918 39.6426 3.85156 39.5762 3.62891C39.5098 3.40234 39.418 3.20508 39.3008 3.03711C39.1875 2.86523 39.0547 2.73047 38.9023 2.63281C38.75 2.53516 38.5879 2.48633 38.416 2.48633C38.252 2.48633 38.1113 2.52539 37.9941 2.60352C37.877 2.68164 37.7793 2.78711 37.7012 2.91992C37.627 3.04883 37.5723 3.20117 37.5371 3.37695C37.502 3.55273 37.4844 3.73828 37.4844 3.93359C37.4844 4.17188 37.5117 4.39844 37.5664 4.61328C37.6211 4.82422 37.6992 5.01172 37.8008 5.17578C37.9023 5.33594 38.0234 5.46484 38.1641 5.5625C38.3047 5.65625 38.4609 5.70312 38.6328 5.70312ZM45.6758 8.13477C45.25 8.13477 44.8496 8.05664 44.4746 7.90039C44.0996 7.74023 43.7734 7.52734 43.4961 7.26172C43.2188 6.99219 42.998 6.68164 42.834 6.33008C42.6738 5.97461 42.5938 5.59961 42.5938 5.20508C42.5938 4.73242 42.668 4.29492 42.8164 3.89258C42.9648 3.48633 43.1758 3.13477 43.4492 2.83789C43.7227 2.54102 44.0488 2.31055 44.4277 2.14648C44.8105 1.97852 45.2363 1.89453 45.7051 1.89453C46.123 1.89453 46.5059 1.96094 46.8535 2.09375C47.2012 2.22656 47.498 2.4082 47.7441 2.63867C47.9941 2.86914 48.1875 3.14062 48.3242 3.45312C48.4609 3.76562 48.5293 4.09961 48.5293 4.45508H44.375C44.3906 4.78711 44.4395 5.10352 44.5215 5.4043C44.6074 5.70508 44.7207 5.9707 44.8613 6.20117C45.002 6.42773 45.166 6.60938 45.3535 6.74609C45.5449 6.87891 45.7559 6.94531 45.9863 6.94531C46.1855 6.94531 46.3809 6.91211 46.5723 6.8457C46.7676 6.77539 46.9473 6.68164 47.1113 6.56445C47.2754 6.44336 47.418 6.30469 47.5391 6.14844C47.6602 5.98828 47.748 5.81641 47.8027 5.63281L48.7285 5.7793C48.6348 6.10352 48.4844 6.4082 48.2773 6.69336C48.0742 6.97852 47.834 7.22852 47.5566 7.44336C47.2832 7.6582 46.9844 7.82812 46.6602 7.95312C46.3359 8.07422 46.0078 8.13477 45.6758 8.13477ZM46.4434 3.83398C46.4277 3.6582 46.3887 3.49805 46.3262 3.35352C46.2676 3.20508 46.1914 3.07812 46.0977 2.97266C46.0039 2.86719 45.8945 2.78711 45.7695 2.73242C45.6445 2.67383 45.5098 2.64453 45.3652 2.64453C45.252 2.64453 45.1406 2.67383 45.0312 2.73242C44.9219 2.78711 44.8223 2.86719 44.7324 2.97266C44.6465 3.07422 44.5723 3.19922 44.5098 3.34766C44.4512 3.49219 44.4121 3.6543 44.3926 3.83398H46.4434Z" fill="#12852D"/>
</svg>
