<svg width="130" height="28" viewBox="0 0 130 28" fill="none" xmlns="http://www.w3.org/2000/svg">
<path d="M0.988281 3.16406H6.68359L14.9277 19.4414L23.0488 3.16406H28.6211V27H22.7852V11.4609L14.998 27H12.748L4.69727 11.2852V27H0.988281V3.16406ZM34.5098 10.6348L38.3418 8.63086H39.9766V27H34.5098V10.6348ZM34.2812 2.72461C34.2812 2.36133 34.3574 2.01563 34.5098 1.6875C34.6621 1.35937 34.873 1.07812 35.1426 0.84375C35.4121 0.609375 35.7227 0.421875 36.0742 0.28125C36.4258 0.140625 36.8066 0.0703125 37.2168 0.0703125C37.627 0.0703125 38.0078 0.140625 38.3594 0.28125C38.7227 0.421875 39.0332 0.609375 39.291 0.84375C39.5605 1.07812 39.7715 1.35937 39.9238 1.6875C40.0762 2.01563 40.1523 2.36133 40.1523 2.72461C40.1523 3.08789 40.0762 3.43359 39.9238 3.76172C39.7715 4.07812 39.5605 4.35352 39.291 4.58789C39.0332 4.82227 38.7227 5.00977 38.3594 5.15039C38.0078 5.29102 37.627 5.36133 37.2168 5.36133C36.8066 5.36133 36.4258 5.29102 36.0742 5.15039C35.7227 5.00977 35.4121 4.82227 35.1426 4.58789C34.873 4.35352 34.6621 4.07812 34.5098 3.76172C34.3574 3.43359 34.2812 3.08789 34.2812 2.72461ZM47.0605 21.9727C47.377 22.957 47.8281 23.7246 48.4141 24.2754C49.0117 24.8145 49.7559 25.084 50.6465 25.084C51.0215 25.084 51.3613 25.0371 51.666 24.9434C51.9824 24.8496 52.252 24.7207 52.4746 24.5566C52.709 24.3809 52.8848 24.1816 53.002 23.959C53.1309 23.7363 53.1953 23.4961 53.1953 23.2383C53.1953 22.8164 53.1133 22.4414 52.9492 22.1133C52.7969 21.7734 52.5801 21.4688 52.2988 21.1992C52.0176 20.9297 51.6836 20.6836 51.2969 20.4609C50.9102 20.2266 50.4941 20.0098 50.0488 19.8105C49.334 19.4941 48.625 19.1543 47.9219 18.791C47.2188 18.416 46.5859 17.9941 46.0234 17.5254C45.4609 17.0449 45.0039 16.5 44.6523 15.8906C44.3125 15.2812 44.1426 14.5781 44.1426 13.7812C44.1426 13.0195 44.3008 12.3281 44.6172 11.707C44.9336 11.0742 45.3789 10.5352 45.9531 10.0898C46.5273 9.64453 47.2129 9.29883 48.0098 9.05273C48.8066 8.80664 49.6855 8.68359 50.6465 8.68359C51.5254 8.68359 52.3047 8.76563 52.9844 8.92969C53.6641 9.09375 54.2617 9.32812 54.7773 9.63281C55.293 9.9375 55.75 10.3125 56.1484 10.7578C56.5469 11.1914 56.9043 11.6836 57.2207 12.2344L54.0566 13.3242C53.8926 12.75 53.6934 12.3047 53.459 11.9883C53.2246 11.6719 52.9785 11.4375 52.7207 11.2852C52.4629 11.1211 52.2109 11.0215 51.9648 10.9863C51.7188 10.9512 51.502 10.9336 51.3145 10.9336C50.9746 10.9336 50.6523 10.9746 50.3477 11.0566C50.043 11.127 49.7734 11.2324 49.5391 11.373C49.3047 11.5137 49.1172 11.6895 48.9766 11.9004C48.8359 12.0996 48.7656 12.334 48.7656 12.6035C48.7656 12.9434 48.8535 13.2656 49.0293 13.5703C49.2051 13.875 49.4512 14.1621 49.7676 14.4316C50.084 14.6895 50.4531 14.9355 50.875 15.1699C51.3086 15.4043 51.7773 15.627 52.2812 15.8379C53.043 16.1543 53.7812 16.5059 54.4961 16.8926C55.2227 17.2793 55.8672 17.7188 56.4297 18.2109C56.9922 18.6914 57.4434 19.2305 57.7832 19.8281C58.123 20.4141 58.293 21.0703 58.293 21.7969C58.293 22.582 58.1641 23.3145 57.9062 23.9941C57.6484 24.6738 57.2266 25.2656 56.6406 25.7695C56.0664 26.2734 55.3164 26.6719 54.3906 26.9648C53.4766 27.2578 52.3633 27.4043 51.0508 27.4043C49.9258 27.4043 48.9707 27.2754 48.1855 27.0176C47.4121 26.7598 46.7559 26.4316 46.2168 26.0332C45.6777 25.623 45.2324 25.166 44.8809 24.6621C44.5293 24.1582 44.2188 23.6602 43.9492 23.168L47.0605 21.9727ZM64.0762 21.9727C64.3926 22.957 64.8438 23.7246 65.4297 24.2754C66.0273 24.8145 66.7715 25.084 67.6621 25.084C68.0371 25.084 68.377 25.0371 68.6816 24.9434C68.998 24.8496 69.2676 24.7207 69.4902 24.5566C69.7246 24.3809 69.9004 24.1816 70.0176 23.959C70.1465 23.7363 70.2109 23.4961 70.2109 23.2383C70.2109 22.8164 70.1289 22.4414 69.9648 22.1133C69.8125 21.7734 69.5957 21.4688 69.3145 21.1992C69.0332 20.9297 68.6992 20.6836 68.3125 20.4609C67.9258 20.2266 67.5098 20.0098 67.0645 19.8105C66.3496 19.4941 65.6406 19.1543 64.9375 18.791C64.2344 18.416 63.6016 17.9941 63.0391 17.5254C62.4766 17.0449 62.0195 16.5 61.668 15.8906C61.3281 15.2812 61.1582 14.5781 61.1582 13.7812C61.1582 13.0195 61.3164 12.3281 61.6328 11.707C61.9492 11.0742 62.3945 10.5352 62.9688 10.0898C63.543 9.64453 64.2285 9.29883 65.0254 9.05273C65.8223 8.80664 66.7012 8.68359 67.6621 8.68359C68.541 8.68359 69.3203 8.76563 70 8.92969C70.6797 9.09375 71.2773 9.32812 71.793 9.63281C72.3086 9.9375 72.7656 10.3125 73.1641 10.7578C73.5625 11.1914 73.9199 11.6836 74.2363 12.2344L71.0723 13.3242C70.9082 12.75 70.709 12.3047 70.4746 11.9883C70.2402 11.6719 69.9941 11.4375 69.7363 11.2852C69.4785 11.1211 69.2266 11.0215 68.9805 10.9863C68.7344 10.9512 68.5176 10.9336 68.3301 10.9336C67.9902 10.9336 67.668 10.9746 67.3633 11.0566C67.0586 11.127 66.7891 11.2324 66.5547 11.373C66.3203 11.5137 66.1328 11.6895 65.9922 11.9004C65.8516 12.0996 65.7812 12.334 65.7812 12.6035C65.7812 12.9434 65.8691 13.2656 66.0449 13.5703C66.2207 13.875 66.4668 14.1621 66.7832 14.4316C67.0996 14.6895 67.4688 14.9355 67.8906 15.1699C68.3242 15.4043 68.793 15.627 69.2969 15.8379C70.0586 16.1543 70.7969 16.5059 71.5117 16.8926C72.2383 17.2793 72.8828 17.7188 73.4453 18.2109C74.0078 18.6914 74.459 19.2305 74.7988 19.8281C75.1387 20.4141 75.3086 21.0703 75.3086 21.7969C75.3086 22.582 75.1797 23.3145 74.9219 23.9941C74.6641 24.6738 74.2422 25.2656 73.6562 25.7695C73.082 26.2734 72.332 26.6719 71.4062 26.9648C70.4922 27.2578 69.3789 27.4043 68.0664 27.4043C66.9414 27.4043 65.9863 27.2754 65.2012 27.0176C64.4277 26.7598 63.7715 26.4316 63.2324 26.0332C62.6934 25.623 62.248 25.166 61.8965 24.6621C61.5449 24.1582 61.2344 23.6602 60.9648 23.168L64.0762 21.9727ZM79.5098 10.6348L83.3418 8.63086H84.9766V27H79.5098V10.6348ZM79.2812 2.72461C79.2812 2.36133 79.3574 2.01563 79.5098 1.6875C79.6621 1.35937 79.873 1.07812 80.1426 0.84375C80.4121 0.609375 80.7227 0.421875 81.0742 0.28125C81.4258 0.140625 81.8066 0.0703125 82.2168 0.0703125C82.627 0.0703125 83.0078 0.140625 83.3594 0.28125C83.7227 0.421875 84.0332 0.609375 84.291 0.84375C84.5605 1.07812 84.7715 1.35937 84.9238 1.6875C85.0762 2.01563 85.1523 2.36133 85.1523 2.72461C85.1523 3.08789 85.0762 3.43359 84.9238 3.76172C84.7715 4.07812 84.5605 4.35352 84.291 4.58789C84.0332 4.82227 83.7227 5.00977 83.3594 5.15039C83.0078 5.29102 82.627 5.36133 82.2168 5.36133C81.8066 5.36133 81.4258 5.29102 81.0742 5.15039C80.7227 5.00977 80.4121 4.82227 80.1426 4.58789C79.873 4.35352 79.6621 4.07812 79.5098 3.76172C79.3574 3.43359 79.2812 3.08789 79.2812 2.72461ZM99.0215 27.334C97.5918 27.334 96.2676 27.0996 95.0488 26.6309C93.8418 26.1621 92.793 25.5176 91.9023 24.6973C91.0234 23.877 90.332 22.916 89.8281 21.8145C89.3359 20.7012 89.0898 19.5 89.0898 18.2109C89.0898 16.8281 89.3359 15.5566 89.8281 14.3965C90.332 13.2246 91.0234 12.2168 91.9023 11.373C92.7812 10.5293 93.8242 9.87305 95.0312 9.4043C96.25 8.92383 97.5742 8.68359 99.0039 8.68359C100.434 8.68359 101.758 8.91797 102.977 9.38672C104.195 9.84375 105.244 10.4766 106.123 11.2852C107.014 12.0938 107.711 13.0488 108.215 14.1504C108.719 15.2402 108.971 16.418 108.971 17.6836C108.971 19.0078 108.719 20.2559 108.215 21.4277C107.723 22.5996 107.031 23.625 106.141 24.5039C105.262 25.3711 104.213 26.0625 102.994 26.5781C101.775 27.082 100.451 27.334 99.0215 27.334ZM99.6543 25.1367C100.146 25.1367 100.604 24.9785 101.025 24.6621C101.447 24.334 101.811 23.9004 102.115 23.3613C102.432 22.8105 102.672 22.1777 102.836 21.4629C103.012 20.748 103.1 20.0039 103.1 19.2305C103.1 18.082 103.012 17.0039 102.836 15.9961C102.672 14.9766 102.396 14.0859 102.01 13.3242C101.623 12.5625 101.119 11.959 100.498 11.5137C99.8887 11.0684 99.1387 10.8457 98.248 10.8457C97.8145 10.8457 97.3984 11.0039 97 11.3203C96.6016 11.6367 96.25 12.0645 95.9453 12.6035C95.6406 13.1309 95.3945 13.7461 95.207 14.4492C95.0312 15.1406 94.9434 15.873 94.9434 16.6465C94.9434 17.8066 95.0488 18.9023 95.2598 19.9336C95.4824 20.9648 95.793 21.8672 96.1914 22.6406C96.6016 23.4023 97.0938 24.0117 97.668 24.4688C98.2539 24.9141 98.916 25.1367 99.6543 25.1367ZM124.088 14.7129C124.088 14.2559 124.035 13.8516 123.93 13.5C123.836 13.1367 123.701 12.8379 123.525 12.6035C123.361 12.3574 123.168 12.1758 122.945 12.0586C122.734 11.9297 122.512 11.8652 122.277 11.8652C122.043 11.8652 121.773 11.9121 121.469 12.0059C121.164 12.0996 120.842 12.2344 120.502 12.4102C120.174 12.5742 119.834 12.7793 119.482 13.0254C119.131 13.2715 118.797 13.5469 118.48 13.8516V27H112.996V10.6348L116.846 8.63086H118.48V10.459C119.324 9.84961 120.227 9.4043 121.188 9.12305C122.148 8.83008 123.104 8.68359 124.053 8.68359C124.791 8.68359 125.488 8.83008 126.145 9.12305C126.812 9.4043 127.393 9.79102 127.885 10.2832C128.389 10.7754 128.787 11.3555 129.08 12.0234C129.373 12.6797 129.52 13.3828 129.52 14.1328V27H124.088V14.7129Z" fill="#12852D"/>
</svg>
