<svg width="91" height="10" viewBox="0 0 91 10" fill="none" xmlns="http://www.w3.org/2000/svg">
<path d="M-0.00390625 1.05469H1.89453L4.64258 6.48047L7.34961 1.05469H9.20703V9H7.26172V3.82031L4.66602 9H3.91602L1.23242 3.76172V9H-0.00390625V1.05469ZM11.1699 3.54492L12.4473 2.87695H12.9922V9H11.1699V3.54492ZM11.0938 0.908203C11.0938 0.787109 11.1191 0.671875 11.1699 0.5625C11.2207 0.453125 11.291 0.359375 11.3809 0.28125C11.4707 0.203125 11.5742 0.140625 11.6914 0.09375C11.8086 0.046875 11.9355 0.0234375 12.0723 0.0234375C12.209 0.0234375 12.3359 0.046875 12.4531 0.09375C12.5742 0.140625 12.6777 0.203125 12.7637 0.28125C12.8535 0.359375 12.9238 0.453125 12.9746 0.5625C13.0254 0.671875 13.0508 0.787109 13.0508 0.908203C13.0508 1.0293 13.0254 1.14453 12.9746 1.25391C12.9238 1.35938 12.8535 1.45117 12.7637 1.5293C12.6777 1.60742 12.5742 1.66992 12.4531 1.7168C12.3359 1.76367 12.209 1.78711 12.0723 1.78711C11.9355 1.78711 11.8086 1.76367 11.6914 1.7168C11.5742 1.66992 11.4707 1.60742 11.3809 1.5293C11.291 1.45117 11.2207 1.35938 11.1699 1.25391C11.1191 1.14453 11.0938 1.0293 11.0938 0.908203ZM15.3535 7.32422C15.459 7.65234 15.6094 7.9082 15.8047 8.0918C16.0039 8.27148 16.252 8.36133 16.5488 8.36133C16.6738 8.36133 16.7871 8.3457 16.8887 8.31445C16.9941 8.2832 17.084 8.24023 17.1582 8.18555C17.2363 8.12695 17.2949 8.06055 17.334 7.98633C17.377 7.91211 17.3984 7.83203 17.3984 7.74609C17.3984 7.60547 17.3711 7.48047 17.3164 7.37109C17.2656 7.25781 17.1934 7.15625 17.0996 7.06641C17.0059 6.97656 16.8945 6.89453 16.7656 6.82031C16.6367 6.74219 16.498 6.66992 16.3496 6.60352C16.1113 6.49805 15.875 6.38477 15.6406 6.26367C15.4062 6.13867 15.1953 5.99805 15.0078 5.8418C14.8203 5.68164 14.668 5.5 14.5508 5.29688C14.4375 5.09375 14.3809 4.85938 14.3809 4.59375C14.3809 4.33984 14.4336 4.10938 14.5391 3.90234C14.6445 3.69141 14.793 3.51172 14.9844 3.36328C15.1758 3.21484 15.4043 3.09961 15.6699 3.01758C15.9355 2.93555 16.2285 2.89453 16.5488 2.89453C16.8418 2.89453 17.1016 2.92188 17.3281 2.97656C17.5547 3.03125 17.7539 3.10938 17.9258 3.21094C18.0977 3.3125 18.25 3.4375 18.3828 3.58594C18.5156 3.73047 18.6348 3.89453 18.7402 4.07812L17.6855 4.44141C17.6309 4.25 17.5645 4.10156 17.4863 3.99609C17.4082 3.89062 17.3262 3.8125 17.2402 3.76172C17.1543 3.70703 17.0703 3.67383 16.9883 3.66211C16.9062 3.65039 16.834 3.64453 16.7715 3.64453C16.6582 3.64453 16.5508 3.6582 16.4492 3.68555C16.3477 3.70898 16.2578 3.74414 16.1797 3.79102C16.1016 3.83789 16.0391 3.89648 15.9922 3.9668C15.9453 4.0332 15.9219 4.11133 15.9219 4.20117C15.9219 4.31445 15.9512 4.42188 16.0098 4.52344C16.0684 4.625 16.1504 4.7207 16.2559 4.81055C16.3613 4.89648 16.4844 4.97852 16.625 5.05664C16.7695 5.13477 16.9258 5.20898 17.0938 5.2793C17.3477 5.38477 17.5938 5.50195 17.832 5.63086C18.0742 5.75977 18.2891 5.90625 18.4766 6.07031C18.6641 6.23047 18.8145 6.41016 18.9277 6.60938C19.041 6.80469 19.0977 7.02344 19.0977 7.26562C19.0977 7.52734 19.0547 7.77148 18.9688 7.99805C18.8828 8.22461 18.7422 8.42188 18.5469 8.58984C18.3555 8.75781 18.1055 8.89062 17.7969 8.98828C17.4922 9.08594 17.1211 9.13477 16.6836 9.13477C16.3086 9.13477 15.9902 9.0918 15.7285 9.00586C15.4707 8.91992 15.252 8.81055 15.0723 8.67773C14.8926 8.54102 14.7441 8.38867 14.627 8.2207C14.5098 8.05273 14.4062 7.88672 14.3164 7.72266L15.3535 7.32422ZM21.0254 7.32422C21.1309 7.65234 21.2812 7.9082 21.4766 8.0918C21.6758 8.27148 21.9238 8.36133 22.2207 8.36133C22.3457 8.36133 22.459 8.3457 22.5605 8.31445C22.666 8.2832 22.7559 8.24023 22.8301 8.18555C22.9082 8.12695 22.9668 8.06055 23.0059 7.98633C23.0488 7.91211 23.0703 7.83203 23.0703 7.74609C23.0703 7.60547 23.043 7.48047 22.9883 7.37109C22.9375 7.25781 22.8652 7.15625 22.7715 7.06641C22.6777 6.97656 22.5664 6.89453 22.4375 6.82031C22.3086 6.74219 22.1699 6.66992 22.0215 6.60352C21.7832 6.49805 21.5469 6.38477 21.3125 6.26367C21.0781 6.13867 20.8672 5.99805 20.6797 5.8418C20.4922 5.68164 20.3398 5.5 20.2227 5.29688C20.1094 5.09375 20.0527 4.85938 20.0527 4.59375C20.0527 4.33984 20.1055 4.10938 20.2109 3.90234C20.3164 3.69141 20.4648 3.51172 20.6562 3.36328C20.8477 3.21484 21.0762 3.09961 21.3418 3.01758C21.6074 2.93555 21.9004 2.89453 22.2207 2.89453C22.5137 2.89453 22.7734 2.92188 23 2.97656C23.2266 3.03125 23.4258 3.10938 23.5977 3.21094C23.7695 3.3125 23.9219 3.4375 24.0547 3.58594C24.1875 3.73047 24.3066 3.89453 24.4121 4.07812L23.3574 4.44141C23.3027 4.25 23.2363 4.10156 23.1582 3.99609C23.0801 3.89062 22.998 3.8125 22.9121 3.76172C22.8262 3.70703 22.7422 3.67383 22.6602 3.66211C22.5781 3.65039 22.5059 3.64453 22.4434 3.64453C22.3301 3.64453 22.2227 3.6582 22.1211 3.68555C22.0195 3.70898 21.9297 3.74414 21.8516 3.79102C21.7734 3.83789 21.7109 3.89648 21.6641 3.9668C21.6172 4.0332 21.5938 4.11133 21.5938 4.20117C21.5938 4.31445 21.623 4.42188 21.6816 4.52344C21.7402 4.625 21.8223 4.7207 21.9277 4.81055C22.0332 4.89648 22.1562 4.97852 22.2969 5.05664C22.4414 5.13477 22.5977 5.20898 22.7656 5.2793C23.0195 5.38477 23.2656 5.50195 23.5039 5.63086C23.7461 5.75977 23.9609 5.90625 24.1484 6.07031C24.3359 6.23047 24.4863 6.41016 24.5996 6.60938C24.7129 6.80469 24.7695 7.02344 24.7695 7.26562C24.7695 7.52734 24.7266 7.77148 24.6406 7.99805C24.5547 8.22461 24.4141 8.42188 24.2188 8.58984C24.0273 8.75781 23.7773 8.89062 23.4688 8.98828C23.1641 9.08594 22.793 9.13477 22.3555 9.13477C21.9805 9.13477 21.6621 9.0918 21.4004 9.00586C21.1426 8.91992 20.9238 8.81055 20.7441 8.67773C20.5645 8.54102 20.416 8.38867 20.2988 8.2207C20.1816 8.05273 20.0781 7.88672 19.9883 7.72266L21.0254 7.32422ZM29.0176 9.11133C28.541 9.11133 28.0996 9.0332 27.6934 8.87695C27.291 8.7207 26.9414 8.50586 26.6445 8.23242C26.3516 7.95898 26.1211 7.63867 25.9531 7.27148C25.7891 6.90039 25.707 6.5 25.707 6.07031C25.707 5.60938 25.7891 5.18555 25.9531 4.79883C26.1211 4.4082 26.3516 4.07227 26.6445 3.79102C26.9375 3.50977 27.2852 3.29102 27.6875 3.13477C28.0938 2.97461 28.5352 2.89453 29.0117 2.89453C29.4883 2.89453 29.9297 2.97266 30.3359 3.12891C30.7422 3.28125 31.0918 3.49219 31.3848 3.76172C31.6816 4.03125 31.9141 4.34961 32.082 4.7168C32.25 5.08008 32.334 5.47266 32.334 5.89453C32.334 6.33594 32.25 6.75195 32.082 7.14258C31.918 7.5332 31.6875 7.875 31.3906 8.16797C31.0977 8.45703 30.748 8.6875 30.3418 8.85938C29.9355 9.02734 29.4941 9.11133 29.0176 9.11133ZM29.2285 8.37891C29.3926 8.37891 29.5449 8.32617 29.6855 8.2207C29.8262 8.11133 29.9473 7.9668 30.0488 7.78711C30.1543 7.60352 30.2344 7.39258 30.2891 7.1543C30.3477 6.91602 30.377 6.66797 30.377 6.41016C30.377 6.02734 30.3477 5.66797 30.2891 5.33203C30.2344 4.99219 30.1426 4.69531 30.0137 4.44141C29.8848 4.1875 29.7168 3.98633 29.5098 3.83789C29.3066 3.68945 29.0566 3.61523 28.7598 3.61523C28.6152 3.61523 28.4766 3.66797 28.3438 3.77344C28.2109 3.87891 28.0938 4.02148 27.9922 4.20117C27.8906 4.37695 27.8086 4.58203 27.7461 4.81641C27.6875 5.04688 27.6582 5.29102 27.6582 5.54883C27.6582 5.93555 27.6934 6.30078 27.7637 6.64453C27.8379 6.98828 27.9414 7.28906 28.0742 7.54688C28.2109 7.80078 28.375 8.00391 28.5664 8.15625C28.7617 8.30469 28.9824 8.37891 29.2285 8.37891ZM37.373 4.9043C37.373 4.75195 37.3555 4.61719 37.3203 4.5C37.2891 4.37891 37.2441 4.2793 37.1855 4.20117C37.1309 4.11914 37.0664 4.05859 36.9922 4.01953C36.9219 3.97656 36.8477 3.95508 36.7695 3.95508C36.6914 3.95508 36.6016 3.9707 36.5 4.00195C36.3984 4.0332 36.291 4.07812 36.1777 4.13672C36.0684 4.19141 35.9551 4.25977 35.8379 4.3418C35.7207 4.42383 35.6094 4.51562 35.5039 4.61719V9H33.6758V3.54492L34.959 2.87695H35.5039V3.48633C35.7852 3.2832 36.0859 3.13477 36.4062 3.04102C36.7266 2.94336 37.0449 2.89453 37.3613 2.89453C37.6074 2.89453 37.8398 2.94336 38.0586 3.04102C38.2812 3.13477 38.4746 3.26367 38.6387 3.42773C38.8066 3.5918 38.9395 3.78516 39.0371 4.00781C39.1348 4.22656 39.1836 4.46094 39.1836 4.71094V9H37.373V4.9043ZM50.1816 9.11719C49.8848 9.11719 49.5801 9.06055 49.2676 8.94727C48.959 8.83008 48.6504 8.66797 48.3418 8.46094C48.0098 8.67188 47.6465 8.83398 47.252 8.94727C46.8613 9.06055 46.416 9.11719 45.916 9.11719C45.5176 9.11719 45.1621 9.07227 44.8496 8.98242C44.5371 8.89258 44.2734 8.76953 44.0586 8.61328C43.8438 8.45312 43.6797 8.26367 43.5664 8.04492C43.457 7.82227 43.4023 7.58203 43.4023 7.32422C43.4023 7.03906 43.459 6.7793 43.5723 6.54492C43.6895 6.31055 43.8438 6.0957 44.0352 5.90039C44.2266 5.70117 44.4453 5.51758 44.6914 5.34961C44.9414 5.17773 45.2012 5.01367 45.4707 4.85742C45.3535 4.56055 45.2617 4.26758 45.1953 3.97852C45.1289 3.68945 45.0957 3.41016 45.0957 3.14062C45.0957 2.875 45.1504 2.61523 45.2598 2.36133C45.373 2.10742 45.5312 1.88281 45.7344 1.6875C45.9414 1.48828 46.1875 1.32813 46.4727 1.20703C46.7617 1.08594 47.084 1.02539 47.4395 1.02539C47.6816 1.02539 47.9238 1.05664 48.166 1.11914C48.4121 1.18164 48.6309 1.2793 48.8223 1.41211C49.0176 1.54102 49.1758 1.71094 49.2969 1.92188C49.418 2.12891 49.4785 2.37891 49.4785 2.67188C49.4785 2.93359 49.4141 3.17383 49.2852 3.39258C49.1602 3.60742 48.9941 3.81055 48.7871 4.00195C48.5801 4.18945 48.3438 4.36719 48.0781 4.53516C47.8164 4.69922 47.5488 4.85938 47.2754 5.01562C47.4355 5.37109 47.6211 5.7168 47.832 6.05273C48.043 6.38867 48.2715 6.69922 48.5176 6.98438C48.6934 6.80469 48.8594 6.61914 49.0156 6.42773C49.1758 6.23242 49.3223 6.03906 49.4551 5.84766C49.5879 5.65234 49.707 5.46484 49.8125 5.28516C49.918 5.10547 50.0059 4.93945 50.0762 4.78711L50.9727 5.38477C50.6992 5.81055 50.4238 6.2207 50.1465 6.61523C49.873 7.00977 49.5762 7.37109 49.2559 7.69922C49.4551 7.85156 49.6543 7.9707 49.8535 8.05664C50.0566 8.14258 50.2539 8.18555 50.4453 8.18555C50.6133 8.18555 50.7598 8.16016 50.8848 8.10938C51.0137 8.05469 51.125 7.98242 51.2188 7.89258C51.3164 7.79883 51.4023 7.6875 51.4766 7.55859C51.5508 7.42969 51.6211 7.28906 51.6875 7.13672L52.3906 7.44727C52.2109 8.03711 51.9395 8.46289 51.5762 8.72461C51.2129 8.98633 50.748 9.11719 50.1816 9.11719ZM46.2441 8.18555C46.4629 8.18555 46.6758 8.15039 46.8828 8.08008C47.0938 8.00977 47.3027 7.91211 47.5098 7.78711C47.209 7.50586 46.9258 7.19922 46.6602 6.86719C46.3984 6.53516 46.1621 6.18945 45.9512 5.83008C45.6973 6.01758 45.4902 6.21484 45.3301 6.42188C45.1738 6.62891 45.0957 6.85938 45.0957 7.11328C45.0957 7.25391 45.1172 7.38867 45.1602 7.51758C45.2031 7.64648 45.2695 7.76172 45.3594 7.86328C45.4531 7.96094 45.5723 8.03906 45.7168 8.09766C45.8613 8.15625 46.0371 8.18555 46.2441 8.18555ZM46.7422 2.99414C46.7422 3.15039 46.7559 3.31445 46.7832 3.48633C46.8105 3.6582 46.8516 3.83789 46.9062 4.02539C47.0781 3.91992 47.2363 3.81055 47.3809 3.69727C47.5293 3.58398 47.6562 3.46484 47.7617 3.33984C47.8711 3.21484 47.9551 3.08398 48.0137 2.94727C48.0762 2.81055 48.1074 2.66406 48.1074 2.50781C48.1074 2.36719 48.0918 2.25 48.0605 2.15625C48.0332 2.0625 47.9922 1.98633 47.9375 1.92773C47.8867 1.86914 47.8242 1.82812 47.75 1.80469C47.6758 1.78125 47.5957 1.76953 47.5098 1.76953C47.4043 1.76953 47.3047 1.80078 47.2109 1.86328C47.1172 1.92578 47.0352 2.01172 46.9648 2.12109C46.8945 2.22656 46.8398 2.35547 46.8008 2.50781C46.7617 2.65625 46.7422 2.81836 46.7422 2.99414ZM57.5234 1.05469L60.1484 6.54492L62.5859 1.05469H63.834L60.2598 9.11719H59.3516L55.5078 1.05469H57.5234ZM64.8652 3.54492L66.1426 2.87695H66.6875V9H64.8652V3.54492ZM64.7891 0.908203C64.7891 0.787109 64.8145 0.671875 64.8652 0.5625C64.916 0.453125 64.9863 0.359375 65.0762 0.28125C65.166 0.203125 65.2695 0.140625 65.3867 0.09375C65.5039 0.046875 65.6309 0.0234375 65.7676 0.0234375C65.9043 0.0234375 66.0312 0.046875 66.1484 0.09375C66.2695 0.140625 66.373 0.203125 66.459 0.28125C66.5488 0.359375 66.6191 0.453125 66.6699 0.5625C66.7207 0.671875 66.7461 0.787109 66.7461 0.908203C66.7461 1.0293 66.7207 1.14453 66.6699 1.25391C66.6191 1.35938 66.5488 1.45117 66.459 1.5293C66.373 1.60742 66.2695 1.66992 66.1484 1.7168C66.0312 1.76367 65.9043 1.78711 65.7676 1.78711C65.6309 1.78711 65.5039 1.76367 65.3867 1.7168C65.2695 1.66992 65.166 1.60742 65.0762 1.5293C64.9863 1.45117 64.916 1.35938 64.8652 1.25391C64.8145 1.14453 64.7891 1.0293 64.7891 0.908203ZM69.0488 7.32422C69.1543 7.65234 69.3047 7.9082 69.5 8.0918C69.6992 8.27148 69.9473 8.36133 70.2441 8.36133C70.3691 8.36133 70.4824 8.3457 70.584 8.31445C70.6895 8.2832 70.7793 8.24023 70.8535 8.18555C70.9316 8.12695 70.9902 8.06055 71.0293 7.98633C71.0723 7.91211 71.0938 7.83203 71.0938 7.74609C71.0938 7.60547 71.0664 7.48047 71.0117 7.37109C70.9609 7.25781 70.8887 7.15625 70.7949 7.06641C70.7012 6.97656 70.5898 6.89453 70.4609 6.82031C70.332 6.74219 70.1934 6.66992 70.0449 6.60352C69.8066 6.49805 69.5703 6.38477 69.3359 6.26367C69.1016 6.13867 68.8906 5.99805 68.7031 5.8418C68.5156 5.68164 68.3633 5.5 68.2461 5.29688C68.1328 5.09375 68.0762 4.85938 68.0762 4.59375C68.0762 4.33984 68.1289 4.10938 68.2344 3.90234C68.3398 3.69141 68.4883 3.51172 68.6797 3.36328C68.8711 3.21484 69.0996 3.09961 69.3652 3.01758C69.6309 2.93555 69.9238 2.89453 70.2441 2.89453C70.5371 2.89453 70.7969 2.92188 71.0234 2.97656C71.25 3.03125 71.4492 3.10938 71.6211 3.21094C71.793 3.3125 71.9453 3.4375 72.0781 3.58594C72.2109 3.73047 72.3301 3.89453 72.4355 4.07812L71.3809 4.44141C71.3262 4.25 71.2598 4.10156 71.1816 3.99609C71.1035 3.89062 71.0215 3.8125 70.9355 3.76172C70.8496 3.70703 70.7656 3.67383 70.6836 3.66211C70.6016 3.65039 70.5293 3.64453 70.4668 3.64453C70.3535 3.64453 70.2461 3.6582 70.1445 3.68555C70.043 3.70898 69.9531 3.74414 69.875 3.79102C69.7969 3.83789 69.7344 3.89648 69.6875 3.9668C69.6406 4.0332 69.6172 4.11133 69.6172 4.20117C69.6172 4.31445 69.6465 4.42188 69.7051 4.52344C69.7637 4.625 69.8457 4.7207 69.9512 4.81055C70.0566 4.89648 70.1797 4.97852 70.3203 5.05664C70.4648 5.13477 70.6211 5.20898 70.7891 5.2793C71.043 5.38477 71.2891 5.50195 71.5273 5.63086C71.7695 5.75977 71.9844 5.90625 72.1719 6.07031C72.3594 6.23047 72.5098 6.41016 72.623 6.60938C72.7363 6.80469 72.793 7.02344 72.793 7.26562C72.793 7.52734 72.75 7.77148 72.6641 7.99805C72.5781 8.22461 72.4375 8.42188 72.2422 8.58984C72.0508 8.75781 71.8008 8.89062 71.4922 8.98828C71.1875 9.08594 70.8164 9.13477 70.3789 9.13477C70.0039 9.13477 69.6855 9.0918 69.4238 9.00586C69.166 8.91992 68.9473 8.81055 68.7676 8.67773C68.5879 8.54102 68.4395 8.38867 68.3223 8.2207C68.2051 8.05273 68.1016 7.88672 68.0117 7.72266L69.0488 7.32422ZM74.1934 3.54492L75.4707 2.87695H76.0156V9H74.1934V3.54492ZM74.1172 0.908203C74.1172 0.787109 74.1426 0.671875 74.1934 0.5625C74.2441 0.453125 74.3145 0.359375 74.4043 0.28125C74.4941 0.203125 74.5977 0.140625 74.7148 0.09375C74.832 0.046875 74.959 0.0234375 75.0957 0.0234375C75.2324 0.0234375 75.3594 0.046875 75.4766 0.09375C75.5977 0.140625 75.7012 0.203125 75.7871 0.28125C75.877 0.359375 75.9473 0.453125 75.998 0.5625C76.0488 0.671875 76.0742 0.787109 76.0742 0.908203C76.0742 1.0293 76.0488 1.14453 75.998 1.25391C75.9473 1.35938 75.877 1.45117 75.7871 1.5293C75.7012 1.60742 75.5977 1.66992 75.4766 1.7168C75.3594 1.76367 75.2324 1.78711 75.0957 1.78711C74.959 1.78711 74.832 1.76367 74.7148 1.7168C74.5977 1.66992 74.4941 1.60742 74.4043 1.5293C74.3145 1.45117 74.2441 1.35938 74.1934 1.25391C74.1426 1.14453 74.1172 1.0293 74.1172 0.908203ZM80.6973 9.11133C80.2207 9.11133 79.7793 9.0332 79.373 8.87695C78.9707 8.7207 78.6211 8.50586 78.3242 8.23242C78.0312 7.95898 77.8008 7.63867 77.6328 7.27148C77.4688 6.90039 77.3867 6.5 77.3867 6.07031C77.3867 5.60938 77.4688 5.18555 77.6328 4.79883C77.8008 4.4082 78.0312 4.07227 78.3242 3.79102C78.6172 3.50977 78.9648 3.29102 79.3672 3.13477C79.7734 2.97461 80.2148 2.89453 80.6914 2.89453C81.168 2.89453 81.6094 2.97266 82.0156 3.12891C82.4219 3.28125 82.7715 3.49219 83.0645 3.76172C83.3613 4.03125 83.5938 4.34961 83.7617 4.7168C83.9297 5.08008 84.0137 5.47266 84.0137 5.89453C84.0137 6.33594 83.9297 6.75195 83.7617 7.14258C83.5977 7.5332 83.3672 7.875 83.0703 8.16797C82.7773 8.45703 82.4277 8.6875 82.0215 8.85938C81.6152 9.02734 81.1738 9.11133 80.6973 9.11133ZM80.9082 8.37891C81.0723 8.37891 81.2246 8.32617 81.3652 8.2207C81.5059 8.11133 81.627 7.9668 81.7285 7.78711C81.834 7.60352 81.9141 7.39258 81.9688 7.1543C82.0273 6.91602 82.0566 6.66797 82.0566 6.41016C82.0566 6.02734 82.0273 5.66797 81.9688 5.33203C81.9141 4.99219 81.8223 4.69531 81.6934 4.44141C81.5645 4.1875 81.3965 3.98633 81.1895 3.83789C80.9863 3.68945 80.7363 3.61523 80.4395 3.61523C80.2949 3.61523 80.1562 3.66797 80.0234 3.77344C79.8906 3.87891 79.7734 4.02148 79.6719 4.20117C79.5703 4.37695 79.4883 4.58203 79.4258 4.81641C79.3672 5.04688 79.3379 5.29102 79.3379 5.54883C79.3379 5.93555 79.373 6.30078 79.4434 6.64453C79.5176 6.98828 79.6211 7.28906 79.7539 7.54688C79.8906 7.80078 80.0547 8.00391 80.2461 8.15625C80.4414 8.30469 80.6621 8.37891 80.9082 8.37891ZM89.0527 4.9043C89.0527 4.75195 89.0352 4.61719 89 4.5C88.9688 4.37891 88.9238 4.2793 88.8652 4.20117C88.8105 4.11914 88.7461 4.05859 88.6719 4.01953C88.6016 3.97656 88.5273 3.95508 88.4492 3.95508C88.3711 3.95508 88.2812 3.9707 88.1797 4.00195C88.0781 4.0332 87.9707 4.07812 87.8574 4.13672C87.748 4.19141 87.6348 4.25977 87.5176 4.3418C87.4004 4.42383 87.2891 4.51562 87.1836 4.61719V9H85.3555V3.54492L86.6387 2.87695H87.1836V3.48633C87.4648 3.2832 87.7656 3.13477 88.0859 3.04102C88.4062 2.94336 88.7246 2.89453 89.041 2.89453C89.2871 2.89453 89.5195 2.94336 89.7383 3.04102C89.9609 3.13477 90.1543 3.26367 90.3184 3.42773C90.4863 3.5918 90.6191 3.78516 90.7168 4.00781C90.8145 4.22656 90.8633 4.46094 90.8633 4.71094V9H89.0527V4.9043Z" fill="#12852D"/>
</svg>
