<svg width="107" height="28" viewBox="0 0 107 28" fill="none" xmlns="http://www.w3.org/2000/svg">
<path d="M6.29297 3.16406L14.168 19.6348L21.4805 3.16406H25.2246L14.502 27.3516H11.7773L0.246094 3.16406H6.29297ZM28.3184 10.6348L32.1504 8.63086H33.7852V27H28.3184V10.6348ZM28.0898 2.72461C28.0898 2.36133 28.166 2.01563 28.3184 1.6875C28.4707 1.35937 28.6816 1.07812 28.9512 0.84375C29.2207 0.609375 29.5312 0.421875 29.8828 0.28125C30.2344 0.140625 30.6152 0.0703125 31.0254 0.0703125C31.4355 0.0703125 31.8164 0.140625 32.168 0.28125C32.5312 0.421875 32.8418 0.609375 33.0996 0.84375C33.3691 1.07812 33.5801 1.35937 33.7324 1.6875C33.8848 2.01563 33.9609 2.36133 33.9609 2.72461C33.9609 3.08789 33.8848 3.43359 33.7324 3.76172C33.5801 4.07812 33.3691 4.35352 33.0996 4.58789C32.8418 4.82227 32.5312 5.00977 32.168 5.15039C31.8164 5.29102 31.4355 5.36133 31.0254 5.36133C30.6152 5.36133 30.2344 5.29102 29.8828 5.15039C29.5312 5.00977 29.2207 4.82227 28.9512 4.58789C28.6816 4.35352 28.4707 4.07812 28.3184 3.76172C28.166 3.43359 28.0898 3.08789 28.0898 2.72461ZM40.8691 21.9727C41.1855 22.957 41.6367 23.7246 42.2227 24.2754C42.8203 24.8145 43.5645 25.084 44.4551 25.084C44.8301 25.084 45.1699 25.0371 45.4746 24.9434C45.791 24.8496 46.0605 24.7207 46.2832 24.5566C46.5176 24.3809 46.6934 24.1816 46.8105 23.959C46.9395 23.7363 47.0039 23.4961 47.0039 23.2383C47.0039 22.8164 46.9219 22.4414 46.7578 22.1133C46.6055 21.7734 46.3887 21.4688 46.1074 21.1992C45.8262 20.9297 45.4922 20.6836 45.1055 20.4609C44.7188 20.2266 44.3027 20.0098 43.8574 19.8105C43.1426 19.4941 42.4336 19.1543 41.7305 18.791C41.0273 18.416 40.3945 17.9941 39.832 17.5254C39.2695 17.0449 38.8125 16.5 38.4609 15.8906C38.1211 15.2812 37.9512 14.5781 37.9512 13.7812C37.9512 13.0195 38.1094 12.3281 38.4258 11.707C38.7422 11.0742 39.1875 10.5352 39.7617 10.0898C40.3359 9.64453 41.0215 9.29883 41.8184 9.05273C42.6152 8.80664 43.4941 8.68359 44.4551 8.68359C45.334 8.68359 46.1133 8.76563 46.793 8.92969C47.4727 9.09375 48.0703 9.32812 48.5859 9.63281C49.1016 9.9375 49.5586 10.3125 49.957 10.7578C50.3555 11.1914 50.7129 11.6836 51.0293 12.2344L47.8652 13.3242C47.7012 12.75 47.502 12.3047 47.2676 11.9883C47.0332 11.6719 46.7871 11.4375 46.5293 11.2852C46.2715 11.1211 46.0195 11.0215 45.7734 10.9863C45.5273 10.9512 45.3105 10.9336 45.123 10.9336C44.7832 10.9336 44.4609 10.9746 44.1562 11.0566C43.8516 11.127 43.582 11.2324 43.3477 11.373C43.1133 11.5137 42.9258 11.6895 42.7852 11.9004C42.6445 12.0996 42.5742 12.334 42.5742 12.6035C42.5742 12.9434 42.6621 13.2656 42.8379 13.5703C43.0137 13.875 43.2598 14.1621 43.5762 14.4316C43.8926 14.6895 44.2617 14.9355 44.6836 15.1699C45.1172 15.4043 45.5859 15.627 46.0898 15.8379C46.8516 16.1543 47.5898 16.5059 48.3047 16.8926C49.0312 17.2793 49.6758 17.7188 50.2383 18.2109C50.8008 18.6914 51.252 19.2305 51.5918 19.8281C51.9316 20.4141 52.1016 21.0703 52.1016 21.7969C52.1016 22.582 51.9727 23.3145 51.7148 23.9941C51.457 24.6738 51.0352 25.2656 50.4492 25.7695C49.875 26.2734 49.125 26.6719 48.1992 26.9648C47.2852 27.2578 46.1719 27.4043 44.8594 27.4043C43.7344 27.4043 42.7793 27.2754 41.9941 27.0176C41.2207 26.7598 40.5645 26.4316 40.0254 26.0332C39.4863 25.623 39.041 25.166 38.6895 24.6621C38.3379 24.1582 38.0273 23.6602 37.7578 23.168L40.8691 21.9727ZM56.3027 10.6348L60.1348 8.63086H61.7695V27H56.3027V10.6348ZM56.0742 2.72461C56.0742 2.36133 56.1504 2.01563 56.3027 1.6875C56.4551 1.35937 56.666 1.07812 56.9355 0.84375C57.2051 0.609375 57.5156 0.421875 57.8672 0.28125C58.2188 0.140625 58.5996 0.0703125 59.0098 0.0703125C59.4199 0.0703125 59.8008 0.140625 60.1523 0.28125C60.5156 0.421875 60.8262 0.609375 61.084 0.84375C61.3535 1.07812 61.5645 1.35937 61.7168 1.6875C61.8691 2.01563 61.9453 2.36133 61.9453 2.72461C61.9453 3.08789 61.8691 3.43359 61.7168 3.76172C61.5645 4.07812 61.3535 4.35352 61.084 4.58789C60.8262 4.82227 60.5156 5.00977 60.1523 5.15039C59.8008 5.29102 59.4199 5.36133 59.0098 5.36133C58.5996 5.36133 58.2188 5.29102 57.8672 5.15039C57.5156 5.00977 57.2051 4.82227 56.9355 4.58789C56.666 4.35352 56.4551 4.07812 56.3027 3.76172C56.1504 3.43359 56.0742 3.08789 56.0742 2.72461ZM75.8145 27.334C74.3848 27.334 73.0605 27.0996 71.8418 26.6309C70.6348 26.1621 69.5859 25.5176 68.6953 24.6973C67.8164 23.877 67.125 22.916 66.6211 21.8145C66.1289 20.7012 65.8828 19.5 65.8828 18.2109C65.8828 16.8281 66.1289 15.5566 66.6211 14.3965C67.125 13.2246 67.8164 12.2168 68.6953 11.373C69.5742 10.5293 70.6172 9.87305 71.8242 9.4043C73.043 8.92383 74.3672 8.68359 75.7969 8.68359C77.2266 8.68359 78.5508 8.91797 79.7695 9.38672C80.9883 9.84375 82.0371 10.4766 82.916 11.2852C83.8066 12.0938 84.5039 13.0488 85.0078 14.1504C85.5117 15.2402 85.7637 16.418 85.7637 17.6836C85.7637 19.0078 85.5117 20.2559 85.0078 21.4277C84.5156 22.5996 83.8242 23.625 82.9336 24.5039C82.0547 25.3711 81.0059 26.0625 79.7871 26.5781C78.5684 27.082 77.2441 27.334 75.8145 27.334ZM76.4473 25.1367C76.9395 25.1367 77.3965 24.9785 77.8184 24.6621C78.2402 24.334 78.6035 23.9004 78.9082 23.3613C79.2246 22.8105 79.4648 22.1777 79.6289 21.4629C79.8047 20.748 79.8926 20.0039 79.8926 19.2305C79.8926 18.082 79.8047 17.0039 79.6289 15.9961C79.4648 14.9766 79.1895 14.0859 78.8027 13.3242C78.416 12.5625 77.9121 11.959 77.291 11.5137C76.6816 11.0684 75.9316 10.8457 75.041 10.8457C74.6074 10.8457 74.1914 11.0039 73.793 11.3203C73.3945 11.6367 73.043 12.0645 72.7383 12.6035C72.4336 13.1309 72.1875 13.7461 72 14.4492C71.8242 15.1406 71.7363 15.873 71.7363 16.6465C71.7363 17.8066 71.8418 18.9023 72.0527 19.9336C72.2754 20.9648 72.5859 21.8672 72.9844 22.6406C73.3945 23.4023 73.8867 24.0117 74.4609 24.4688C75.0469 24.9141 75.709 25.1367 76.4473 25.1367ZM100.881 14.7129C100.881 14.2559 100.828 13.8516 100.723 13.5C100.629 13.1367 100.494 12.8379 100.318 12.6035C100.154 12.3574 99.9609 12.1758 99.7383 12.0586C99.5273 11.9297 99.3047 11.8652 99.0703 11.8652C98.8359 11.8652 98.5664 11.9121 98.2617 12.0059C97.957 12.0996 97.6348 12.2344 97.2949 12.4102C96.9668 12.5742 96.627 12.7793 96.2754 13.0254C95.9238 13.2715 95.5898 13.5469 95.2734 13.8516V27H89.7891V10.6348L93.6387 8.63086H95.2734V10.459C96.1172 9.84961 97.0195 9.4043 97.9805 9.12305C98.9414 8.83008 99.8965 8.68359 100.846 8.68359C101.584 8.68359 102.281 8.83008 102.938 9.12305C103.605 9.4043 104.186 9.79102 104.678 10.2832C105.182 10.7754 105.58 11.3555 105.873 12.0234C106.166 12.6797 106.312 13.3828 106.312 14.1328V27H100.881V14.7129Z" fill="#12852D"/>
</svg>
